<?xml version="1.0" encoding="UTF-8" standalone="no"?>
<!DOCTYPE svg PUBLIC "-//W3C//DTD SVG 1.1//EN" "http://www.w3.org/Graphics/SVG/1.1/DTD/svg11.dtd">
<svg version="1.1" xmlns="http://www.w3.org/2000/svg" xmlns:xlink="http://www.w3.org/1999/xlink" preserveAspectRatio="xMidYMid meet" viewBox="0 0 640 640" width="640" height="640"><defs><path d="M115.37 41.54L115.99 41.59L116.6 41.67L117.21 41.76L117.81 41.87L118.41 42L119 42.15L119.58 42.32L120.15 42.51L120.72 42.72L121.28 42.94L121.83 43.19L122.37 43.45L122.9 43.72L123.42 44.02L123.93 44.33L124.43 44.65L124.92 44.99L125.4 45.35L125.86 45.72L126.32 46.11L126.76 46.51L127.19 46.93L127.6 47.36L128.01 47.81L128.39 48.26L128.77 48.73L129.12 49.22L129.47 49.71L129.79 50.22L130.1 50.74L130.4 51.28L130.68 51.82L130.94 52.37L131.18 52.94L131.4 53.51L131.61 54.1L131.8 54.7L131.96 55.3L152.45 134.12L621.56 134.12L621.99 134.12L622.41 134.14L622.84 134.16L623.26 134.19L623.68 134.24L624.1 134.29L624.52 134.35L624.93 134.43L625.35 134.51L625.76 134.6L626.16 134.7L626.57 134.81L626.97 134.93L627.37 135.06L627.76 135.19L628.16 135.34L628.54 135.49L628.93 135.65L629.31 135.82L629.69 136L630.06 136.19L630.43 136.39L630.79 136.59L631.15 136.81L631.5 137.03L631.85 137.26L632.2 137.49L632.54 137.74L632.87 137.99L633.2 138.25L633.52 138.52L633.84 138.8L634.15 139.08L634.46 139.37L634.75 139.67L635.05 139.98L635.33 140.29L635.61 140.61L635.88 140.94L636.15 141.28L636.41 141.62L636.66 141.97L636.9 142.32L637.13 142.67L637.35 143.03L637.57 143.4L637.77 143.76L637.97 144.14L638.15 144.51L638.33 144.89L638.5 145.28L638.66 145.66L638.82 146.05L638.96 146.45L639.09 146.84L639.22 147.24L639.33 147.64L639.44 148.05L639.54 148.45L639.63 148.86L639.7 149.27L639.77 149.68L639.83 150.09L639.89 150.51L639.93 150.92L639.96 151.34L639.98 151.76L640 152.18L640 152.59L639.99 153.01L639.98 153.43L639.95 153.85L639.92 154.27L639.87 154.69L639.82 155.11L639.76 155.53L639.68 155.95L639.6 156.37L639.51 156.78L639.4 157.2L567.15 434.97L566.98 435.57L566.8 436.17L566.59 436.75L566.37 437.33L566.12 437.89L565.86 438.45L565.59 438.99L565.29 439.52L564.98 440.04L564.65 440.55L564.31 441.05L563.95 441.53L563.58 442L563.19 442.46L562.79 442.9L562.38 443.33L561.95 443.75L561.51 444.15L561.05 444.54L560.59 444.91L560.11 445.27L559.62 445.61L559.12 445.94L558.61 446.25L558.09 446.54L557.55 446.82L557.01 447.08L556.46 447.32L555.91 447.54L555.34 447.75L554.77 447.94L554.18 448.11L553.59 448.26L553 448.39L552.4 448.5L551.79 448.6L551.18 448.67L550.56 448.72L549.93 448.75L549.31 448.76L210.43 448.76L209.81 448.75L209.18 448.72L208.56 448.67L207.95 448.6L207.34 448.5L206.74 448.39L206.15 448.26L205.56 448.11L204.97 447.94L204.4 447.75L203.83 447.54L203.28 447.32L202.73 447.08L202.19 446.82L201.65 446.54L201.13 446.25L200.62 445.94L200.12 445.61L199.63 445.27L199.15 444.91L198.69 444.54L198.23 444.15L197.79 443.75L197.36 443.33L196.95 442.9L196.55 442.46L196.16 442L195.79 441.53L195.43 441.05L195.09 440.55L194.76 440.04L194.45 439.52L194.15 438.99L193.88 438.45L193.62 437.89L193.37 437.33L193.15 436.75L192.94 436.17L192.76 435.57L192.59 434.97L120.35 157.2L120.34 157.2L99.86 78.38L18.44 78.38L17.68 78.37L16.93 78.32L16.18 78.24L15.45 78.14L14.72 78.01L14.01 77.84L13.31 77.66L12.61 77.44L11.93 77.2L11.26 76.93L10.61 76.64L9.97 76.32L9.34 75.98L8.73 75.62L8.13 75.23L7.55 74.82L6.99 74.39L6.44 73.94L5.91 73.47L5.4 72.98L4.91 72.47L4.44 71.94L3.99 71.39L3.56 70.83L3.15 70.25L2.76 69.65L2.4 69.04L2.06 68.41L1.74 67.77L1.45 67.12L1.18 66.45L0.94 65.77L0.72 65.08L0.54 64.37L0.37 63.66L0.24 62.93L0.14 62.2L0.06 61.45L0.02 60.7L0 59.94L0.02 59.18L0.06 58.43L0.14 57.68L0.24 56.95L0.37 56.22L0.54 55.51L0.72 54.8L0.94 54.11L1.18 53.43L1.45 52.76L1.74 52.11L2.06 51.47L2.4 50.84L2.76 50.23L3.15 49.63L3.56 49.05L3.99 48.49L4.44 47.94L4.91 47.41L5.4 46.9L5.91 46.41L6.44 45.94L6.99 45.49L7.55 45.06L8.13 44.65L8.73 44.26L9.34 43.9L9.97 43.56L10.61 43.24L11.26 42.95L11.93 42.68L12.61 42.44L13.31 42.22L14.01 42.04L14.72 41.87L15.45 41.74L16.18 41.64L16.93 41.56L17.68 41.51L18.44 41.5L114.12 41.5L114.74 41.51L115.37 41.54ZM469.92 411.89L535.05 411.89L549.54 356.19L469.92 356.19L469.92 411.89ZM224.69 411.89L289.83 411.89L289.83 356.19L210.21 356.19L224.69 411.89ZM326.71 411.89L433.04 411.89L433.04 356.19L326.71 356.19L326.71 411.89ZM326.71 319.31L433.04 319.31L433.04 263.57L326.71 263.57L326.71 319.31ZM200.62 319.31L289.83 319.31L289.83 263.57L186.12 263.57L200.62 319.31ZM469.92 319.31L559.13 319.31L573.63 263.57L469.92 263.57L469.92 319.31ZM469.92 226.69L583.22 226.69L597.71 171L469.92 171L469.92 226.69ZM176.53 226.69L289.83 226.69L289.83 171L162.04 171L176.53 226.69ZM326.71 226.69L433.04 226.69L433.04 171L326.71 171L326.71 226.69Z" id="atTp63K18"></path><path d="M264.87 464L267.59 464.27L270.27 464.66L272.91 465.14L275.52 465.73L278.09 466.42L280.62 467.21L283.11 468.1L285.55 469.07L287.94 470.14L290.28 471.3L292.58 472.55L294.81 473.88L296.99 475.29L299.11 476.79L301.17 478.36L303.17 480.01L305.1 481.73L306.96 483.52L308.76 485.39L310.48 487.32L312.13 489.32L313.7 491.38L315.19 493.5L316.61 495.68L317.94 497.91L319.18 500.2L320.34 502.55L321.41 504.94L322.39 507.38L323.27 509.86L324.06 512.39L324.75 514.96L325.34 517.57L325.83 520.22L326.21 522.9L326.49 525.61L326.66 528.36L326.71 531.13L326.66 533.9L326.49 536.65L326.21 539.36L325.83 542.04L325.34 544.69L324.75 547.3L324.06 549.87L323.27 552.4L322.39 554.89L321.41 557.33L320.34 559.72L319.18 562.06L317.94 564.36L316.61 566.59L315.19 568.77L313.7 570.89L312.13 572.95L310.48 574.95L308.76 576.88L306.96 578.75L305.1 580.54L303.17 582.26L301.17 583.91L299.11 585.48L296.99 586.98L294.81 588.39L292.57 589.72L290.28 590.97L287.94 592.13L285.55 593.2L283.11 594.18L280.62 595.06L278.09 595.85L275.52 596.54L272.91 597.13L270.27 597.62L267.59 598L264.87 598.28L262.13 598.44L259.36 598.5L256.58 598.44L253.84 598.28L251.13 598L248.44 597.62L245.8 597.13L243.19 596.54L240.62 595.85L238.09 595.06L235.6 594.18L233.16 593.2L230.77 592.13L228.43 590.97L226.14 589.72L223.9 588.39L221.72 586.98L219.6 585.48L217.54 583.91L215.54 582.26L213.61 580.54L211.75 578.75L209.95 576.88L208.23 574.95L206.58 572.95L205.01 570.89L203.52 568.77L202.1 566.59L200.77 564.36L199.53 562.06L198.37 559.72L197.3 557.33L196.32 554.89L195.44 552.4L194.65 549.87L193.96 547.3L193.37 544.69L192.88 542.04L192.5 539.36L192.22 536.65L192.05 533.9L192 531.13L192.05 528.36L192.22 525.61L192.5 522.9L192.88 520.22L193.37 517.57L193.96 514.96L194.65 512.39L195.44 509.86L196.32 507.38L197.3 504.94L198.37 502.55L199.53 500.2L200.77 497.91L202.1 495.68L203.52 493.5L205.01 491.38L206.58 489.32L208.23 487.32L209.95 485.39L211.75 483.52L213.61 481.73L215.54 480.01L217.54 478.36L219.6 476.79L221.72 475.29L223.9 473.88L226.14 472.55L228.43 471.3L230.77 470.14L233.16 469.07L235.6 468.1L238.09 467.21L240.62 466.42L243.19 465.73L245.8 465.14L248.44 464.66L251.13 464.27L253.84 464L256.58 463.83L259.36 463.77L262.13 463.83L264.87 464ZM256.73 500.77L255.44 500.9L254.17 501.1L252.91 501.34L251.67 501.64L250.45 501.98L249.26 502.37L248.08 502.81L246.93 503.3L245.8 503.84L244.7 504.41L243.63 505.03L242.58 505.69L241.57 506.4L240.58 507.14L239.63 507.92L238.7 508.74L237.81 509.59L236.96 510.48L236.14 511.4L235.36 512.36L234.62 513.34L233.92 514.36L233.26 515.41L232.64 516.48L232.06 517.58L231.53 518.71L231.04 519.86L230.6 521.03L230.2 522.23L229.86 523.45L229.56 524.68L229.32 525.94L229.13 527.21L228.99 528.5L228.91 529.81L228.88 531.13L228.91 532.45L228.99 533.76L229.13 535.05L229.32 536.32L229.56 537.58L229.86 538.82L230.2 540.04L230.6 541.23L231.04 542.41L231.53 543.56L232.06 544.69L232.64 545.79L233.26 546.86L233.92 547.91L234.62 548.93L235.36 549.91L236.14 550.87L236.96 551.79L237.81 552.68L238.7 553.53L239.63 554.35L240.58 555.13L241.57 555.87L242.58 556.58L243.63 557.24L244.7 557.86L245.8 558.44L246.93 558.97L248.08 559.46L249.26 559.9L250.45 560.29L251.67 560.64L252.91 560.93L254.17 561.18L255.44 561.37L256.73 561.51L258.04 561.59L259.36 561.62L260.68 561.59L261.98 561.51L263.27 561.37L264.55 561.18L265.8 560.93L267.04 560.64L268.26 560.29L269.45 559.9L270.63 559.46L271.78 558.97L272.91 558.44L274.01 557.86L275.08 557.24L276.13 556.58L277.14 555.87L278.13 555.13L279.09 554.35L280.01 553.53L280.9 552.68L281.75 551.79L282.57 550.87L283.35 549.91L284.09 548.93L284.79 547.91L285.45 546.86L286.07 545.79L286.65 544.69L287.18 543.56L287.67 542.41L288.11 541.23L288.51 540.04L288.85 538.82L289.15 537.58L289.39 536.32L289.58 535.05L289.72 533.76L289.8 532.45L289.83 531.13L289.8 529.81L289.72 528.51L289.58 527.21L289.39 525.94L289.15 524.68L288.85 523.45L288.51 522.23L288.11 521.03L287.67 519.86L287.18 518.71L286.65 517.58L286.07 516.48L285.45 515.41L284.79 514.36L284.09 513.34L283.35 512.36L282.57 511.4L281.75 510.48L280.9 509.59L280.01 508.74L279.08 507.92L278.13 507.14L277.14 506.4L276.13 505.69L275.08 505.03L274.01 504.41L272.91 503.84L271.78 503.3L270.63 502.82L269.45 502.37L268.26 501.98L267.04 501.64L265.8 501.34L264.55 501.1L263.27 500.9L261.98 500.77L260.68 500.68L259.36 500.65L258.04 500.68L256.73 500.77Z" id="jGDKCbT4"></path><path d="M505.91 464L508.62 464.27L511.3 464.66L513.95 465.14L516.56 465.73L519.13 466.42L521.66 467.21L524.14 468.1L526.58 469.07L528.98 470.14L531.32 471.3L533.61 472.55L535.84 473.88L538.02 475.29L540.14 476.79L542.2 478.36L544.2 480.01L546.13 481.73L548 483.52L549.79 485.39L551.51 487.32L553.16 489.32L554.74 491.38L556.23 493.5L557.64 495.68L558.97 497.91L560.22 500.2L561.38 502.55L562.45 504.94L563.43 507.38L564.31 509.86L565.1 512.39L565.79 514.96L566.38 517.57L566.87 520.22L567.25 522.9L567.53 525.61L567.69 528.36L567.75 531.13L567.69 533.9L567.53 536.65L567.25 539.36L566.87 542.04L566.38 544.69L565.79 547.3L565.1 549.87L564.31 552.4L563.43 554.89L562.45 557.33L561.38 559.72L560.22 562.06L558.97 564.36L557.64 566.59L556.23 568.77L554.74 570.89L553.16 572.95L551.52 574.95L549.79 576.88L548 578.75L546.13 580.54L544.2 582.26L542.21 583.91L540.15 585.48L538.03 586.98L535.85 588.39L533.61 589.72L531.32 590.97L528.98 592.13L526.58 593.2L524.14 594.18L521.66 595.06L519.13 595.85L516.56 596.54L513.95 597.13L511.3 597.62L508.62 598L505.91 598.28L503.16 598.44L500.39 598.5L497.62 598.44L494.87 598.28L492.16 598L489.48 597.62L486.83 597.13L484.22 596.54L481.65 595.85L479.12 595.06L476.64 594.18L474.2 593.2L471.81 592.13L469.46 590.97L467.17 589.72L464.94 588.39L462.76 586.98L460.64 585.48L458.58 583.91L456.58 582.26L454.65 580.54L452.79 578.75L450.99 576.88L449.27 574.95L447.62 572.95L446.05 570.89L444.56 568.77L443.14 566.59L441.81 564.36L440.57 562.06L439.41 559.72L438.34 557.33L437.36 554.89L436.48 552.4L435.69 549.87L435 547.3L434.41 544.69L433.92 542.04L433.54 539.36L433.26 536.65L433.09 533.9L433.04 531.13L433.09 528.36L433.26 525.61L433.54 522.9L433.92 520.22L434.41 517.57L435 514.96L435.69 512.39L436.48 509.86L437.36 507.38L438.34 504.94L439.41 502.55L440.57 500.2L441.81 497.91L443.14 495.68L444.56 493.5L446.05 491.38L447.62 489.32L449.27 487.32L450.99 485.39L452.79 483.52L454.65 481.73L456.58 480.01L458.58 478.36L460.64 476.79L462.76 475.29L464.94 473.88L467.17 472.55L469.46 471.3L471.81 470.14L474.2 469.07L476.64 468.1L479.12 467.21L481.65 466.42L484.22 465.73L486.83 465.14L489.48 464.66L492.16 464.27L494.87 464L497.62 463.83L500.39 463.77L503.16 463.83L505.91 464ZM497.76 500.77L496.47 500.9L495.2 501.1L493.94 501.34L492.71 501.64L491.49 501.98L490.29 502.37L489.12 502.81L487.97 503.3L486.84 503.84L485.74 504.41L484.67 505.03L483.62 505.69L482.61 506.4L481.62 507.14L480.66 507.92L479.74 508.74L478.85 509.59L478 510.48L477.18 511.4L476.4 512.36L475.66 513.34L474.96 514.36L474.3 515.41L473.68 516.48L473.1 517.58L472.57 518.71L472.08 519.86L471.64 521.03L471.25 522.23L470.9 523.45L470.61 524.68L470.36 525.94L470.17 527.21L470.03 528.5L469.95 529.81L469.92 531.13L469.95 532.45L470.03 533.76L470.17 535.05L470.36 536.32L470.61 537.58L470.9 538.82L471.25 540.04L471.64 541.23L472.08 542.41L472.57 543.56L473.1 544.69L473.68 545.79L474.3 546.86L474.96 547.91L475.66 548.93L476.4 549.91L477.18 550.87L478 551.79L478.85 552.68L479.74 553.53L480.66 554.35L481.62 555.13L482.61 555.87L483.62 556.58L484.67 557.24L485.74 557.86L486.84 558.44L487.97 558.97L489.12 559.46L490.29 559.9L491.49 560.29L492.71 560.64L493.94 560.93L495.2 561.18L496.47 561.37L497.76 561.51L499.07 561.59L500.39 561.62L501.71 561.59L503.01 561.51L504.31 561.37L505.58 561.18L506.84 560.93L508.07 560.64L509.29 560.29L510.49 559.9L511.66 559.46L512.81 558.97L513.94 558.44L515.04 557.86L516.11 557.24L517.16 556.58L518.18 555.87L519.16 555.13L520.12 554.35L521.04 553.53L521.93 552.68L522.78 551.79L523.6 550.87L524.38 549.91L525.12 548.93L525.83 547.91L526.49 546.86L527.11 545.79L527.69 544.69L528.22 543.56L528.71 542.41L529.15 541.23L529.54 540.04L529.89 538.82L530.18 537.58L530.43 536.32L530.62 535.05L530.76 533.76L530.84 532.45L530.87 531.13L530.84 529.81L530.76 528.51L530.62 527.21L530.43 525.94L530.18 524.68L529.89 523.45L529.54 522.23L529.15 521.03L528.71 519.86L528.22 518.71L527.69 517.58L527.11 516.48L526.49 515.41L525.83 514.36L525.13 513.34L524.38 512.36L523.6 511.4L522.78 510.48L521.93 509.59L521.04 508.74L520.12 507.92L519.17 507.14L518.18 506.4L517.16 505.69L516.12 505.03L515.04 504.41L513.94 503.84L512.81 503.3L511.66 502.82L510.49 502.37L509.29 501.98L508.07 501.64L506.84 501.34L505.58 501.1L504.31 500.9L503.02 500.77L501.71 500.68L500.39 500.65L499.07 500.68L497.76 500.77Z" id="a3S9M64Aw8"></path></defs><g><g><g><use xlink:href="#atTp63K18" opacity="1" fill="#ffffff" fill-opacity="1"></use><g><use xlink:href="#atTp63K18" opacity="1" fill-opacity="0" stroke="#000000" stroke-width="1" stroke-opacity="0"></use></g></g><g><use xlink:href="#jGDKCbT4" opacity="1" fill="#ffffff" fill-opacity="1"></use><g><use xlink:href="#jGDKCbT4" opacity="1" fill-opacity="0" stroke="#000000" stroke-width="1" stroke-opacity="0"></use></g></g><g><use xlink:href="#a3S9M64Aw8" opacity="1" fill="#ffffff" fill-opacity="1"></use><g><use xlink:href="#a3S9M64Aw8" opacity="1" fill-opacity="0" stroke="#000000" stroke-width="1" stroke-opacity="0"></use></g></g></g></g></svg>