<?xml version="1.0" encoding="UTF-8" standalone="no"?>
<!DOCTYPE svg PUBLIC "-//W3C//DTD SVG 1.1//EN" "http://www.w3.org/Graphics/SVG/1.1/DTD/svg11.dtd">
<svg version="1.1" xmlns="http://www.w3.org/2000/svg" xmlns:xlink="http://www.w3.org/1999/xlink" preserveAspectRatio="xMidYMid meet" viewBox="0 0 640 640" width="640" height="640"><defs><path d="M283.58 114.53L283.97 114.57L284.35 114.63L284.72 114.7L285.09 114.78L285.45 114.88L285.81 114.99L286.16 115.11L286.5 115.25L286.84 115.4L287.17 115.56L287.5 115.74L287.81 115.93L288.12 116.13L288.42 116.34L288.71 116.56L288.99 116.79L289.26 117.03L289.52 117.29L289.78 117.55L290.02 117.82L290.25 118.1L290.48 118.39L290.69 118.69L290.88 119L291.07 119.32L291.25 119.64L291.41 119.97L291.56 120.31L291.7 120.65L291.82 121L291.94 121.36L292.03 121.72L292.12 122.09L292.18 122.47L292.24 122.84L292.28 123.23L292.3 123.62L292.31 124.01L292.3 124.4L292.28 124.79L292.24 125.17L292.18 125.55L292.12 125.92L292.03 126.29L291.94 126.66L291.82 127.01L291.7 127.36L291.56 127.71L291.41 128.05L291.25 128.38L291.07 128.7L290.88 129.01L290.69 129.32L290.48 129.62L290.25 129.91L290.02 130.19L289.78 130.47L289.52 130.73L289.26 130.98L288.99 131.22L288.71 131.46L288.42 131.68L288.12 131.89L287.81 132.09L287.5 132.28L287.17 132.45L286.84 132.62L286.5 132.77L286.16 132.9L285.81 133.03L285.45 133.14L285.09 133.24L284.72 133.32L284.35 133.39L283.97 133.44L283.58 133.48L283.2 133.5L282.8 133.51L279.79 133.58L276.8 133.76L273.85 134.06L270.93 134.47L268.05 135L265.21 135.64L262.41 136.39L259.66 137.24L256.95 138.19L254.3 139.25L251.69 140.4L249.14 141.66L246.65 143L244.21 144.44L241.84 145.97L239.52 147.58L237.28 149.28L235.1 151.07L232.99 152.93L230.96 154.87L229 156.89L227.11 158.98L225.31 161.14L223.59 163.37L221.95 165.66L220.4 168.02L218.94 170.45L217.57 172.93L216.3 175.47L215.12 178.06L214.03 180.71L213.05 183.4L212.18 186.15L211.4 188.94L210.74 191.77L210.18 194.65L209.74 197.56L209.41 200.51L209.2 203.49L209.11 206.51L209.98 206.4L210.85 206.28L211.72 206.15L212.58 206.02L213.45 205.87L214.31 205.73L215.18 205.57L216.04 205.41L216.9 205.23L217.75 205.06L218.61 204.87L219.46 204.68L220.32 204.48L221.17 204.27L222.02 204.06L222.86 203.84L223.71 203.61L224.55 203.37L225.39 203.13L226.23 202.88L227.07 202.63L227.9 202.36L228.74 202.09L229.57 201.82L230.39 201.53L231.22 201.24L232.04 200.94L232.86 200.64L233.68 200.32L234.5 200.01L235.31 199.68L236.12 199.35L236.93 199.01L237.73 198.66L238.53 198.31L239.33 197.95L240.13 197.58L240.92 197.2L241.72 196.82L242.5 196.44L243.84 195.76L245.19 195.1L246.54 194.46L247.9 193.83L249.27 193.22L250.64 192.62L252.02 192.04L253.41 191.48L254.8 190.94L256.2 190.41L257.6 189.89L259.01 189.4L260.42 188.92L261.84 188.45L263.26 188L264.69 187.57L266.12 187.16L267.56 186.76L269 186.38L270.45 186.02L271.9 185.67L273.35 185.34L274.81 185.03L276.27 184.73L277.74 184.45L279.21 184.19L280.68 183.94L282.15 183.71L283.63 183.5L285.11 183.31L286.59 183.13L288.08 182.97L289.57 182.82L291.06 182.7L292.55 182.59L294.05 182.5L295.54 182.42L297.04 182.37L298.54 182.33L300.04 182.3L304.26 182.4L308.38 182.67L312.41 183.12L316.35 183.74L320.2 184.55L323.95 185.53L327.61 186.69L331.17 188.02L334.63 189.53L338 191.21L341.27 193.06L344.45 195.09L347.53 197.29L350.51 199.65L353.39 202.19L356.17 204.89L358.86 207.76L361.44 210.8L363.92 214.01L366.3 217.38L368.59 220.91L370.76 224.61L372.84 228.47L374.81 232.5L376.68 236.68L378.45 241.02L380.11 245.53L381.67 250.19L383.12 255.01L384.46 259.99L385.7 265.12L386.83 270.41L387.86 275.86L388.77 281.46L389.58 287.21L390.28 293.11L390.87 299.16L391.35 305.37L391.72 311.72L391.98 318.23L556.17 262.84L609.9 244.72L610.27 244.6L610.65 244.5L611.02 244.42L611.4 244.35L611.78 244.29L612.15 244.25L612.53 244.23L612.9 244.22L613.27 244.23L613.64 244.25L614.01 244.28L614.37 244.33L614.74 244.39L615.1 244.47L615.45 244.56L615.8 244.66L616.15 244.78L616.49 244.91L616.82 245.05L617.15 245.21L617.48 245.38L617.79 245.56L618.1 245.75L618.41 245.95L618.7 246.17L618.99 246.4L619.27 246.63L619.54 246.88L619.8 247.14L620.05 247.42L620.29 247.7L620.52 247.99L620.74 248.29L620.95 248.6L621.14 248.93L621.33 249.26L621.5 249.6L621.66 249.95L621.81 250.31L621.94 250.68L623.22 254.58L624.42 258.51L625.54 262.45L626.58 266.4L627.53 270.37L628.41 274.35L629.21 278.35L629.93 282.35L630.57 286.36L631.13 290.38L631.61 294.4L632 298.43L632.33 302.47L632.57 306.5L632.73 310.54L632.81 314.58L632.81 318.62L632.74 322.66L632.58 326.69L632.35 330.72L632.03 334.75L631.64 338.76L631.17 342.77L630.62 346.77L630 350.77L629.29 354.75L628.51 358.71L627.64 362.67L626.7 366.61L625.69 370.53L624.59 374.44L623.41 378.32L622.16 382.19L620.83 386.04L619.42 389.87L617.94 393.67L616.37 397.45L614.73 401.2L613.02 404.93L611.22 408.62L607.28 416.15L603.07 423.45L598.61 430.52L593.9 437.35L588.96 443.95L583.78 450.3L578.38 456.41L572.78 462.27L566.97 467.88L560.96 473.23L554.77 478.33L548.41 483.17L541.87 487.75L535.18 492.06L528.34 496.11L521.36 499.88L514.25 503.38L507.02 506.6L499.67 509.54L492.22 512.2L484.67 514.57L477.03 516.65L469.32 518.45L461.53 519.94L453.69 521.14L445.79 522.03L437.86 522.63L429.88 522.91L421.89 522.89L413.87 522.55L405.85 521.89L397.84 520.92L389.83 519.62L381.84 518L373.88 516.06L365.96 513.78L358.09 511.16L350.27 508.21L342.51 504.92L334.83 501.29L334.2 500.98L333.57 500.66L332.94 500.34L332.31 500.01L331.68 499.69L331.06 499.36L330.43 499.03L329.81 498.7L329.19 498.37L328.57 498.04L327.95 497.7L327.33 497.36L326.71 497.02L326.09 496.68L325.48 496.33L324.86 495.98L324.25 495.63L323.64 495.28L323.03 494.93L322.42 494.57L321.81 494.22L321.21 493.86L320.6 493.49L320 493.13L319.39 492.76L318.79 492.4L318.19 492.03L317.59 491.65L316.99 491.28L316.4 490.9L315.8 490.53L315.2 490.15L314.61 489.76L314.02 489.38L313.43 488.99L312.84 488.61L312.25 488.22L311.66 487.82L311.08 487.43L310.5 487.03L308.08 488.71L305.64 490.35L303.18 491.95L300.7 493.52L298.2 495.04L295.67 496.52L293.13 497.96L290.57 499.36L287.98 500.72L285.38 502.03L282.76 503.31L280.12 504.55L277.46 505.74L274.79 506.9L272.1 508.01L269.39 509.08L266.67 510.11L263.93 511.09L261.18 512.04L258.42 512.94L255.64 513.8L252.85 514.61L250.04 515.39L247.23 516.12L244.4 516.8L241.56 517.45L238.71 518.05L235.85 518.6L232.98 519.12L230.1 519.59L227.22 520.01L224.32 520.39L221.42 520.73L218.51 521.02L215.59 521.27L212.67 521.47L209.75 521.62L206.81 521.74L203.88 521.8L200.93 521.82L193.04 521.66L185.23 521.19L177.51 520.41L169.88 519.33L162.35 517.95L154.93 516.28L147.62 514.32L140.42 512.09L133.35 509.58L126.41 506.81L119.61 503.78L112.95 500.5L106.44 496.96L100.08 493.19L93.88 489.18L87.85 484.95L82 480.49L76.32 475.81L70.83 470.92L65.53 465.83L60.43 460.54L55.53 455.06L50.85 449.39L46.38 443.54L42.13 437.52L38.11 431.33L34.33 424.98L30.79 418.47L27.49 411.81L24.45 405.02L21.66 398.08L19.15 391.01L16.9 383.82L14.94 376.51L13.25 369.09L11.86 361.57L10.76 353.94L9.97 346.22L9.48 338.41L9.31 330.52L9.38 323.43L9.58 316.51L9.9 309.75L10.36 303.15L10.94 296.72L11.66 290.45L12.5 284.35L13.47 278.41L14.56 272.64L15.78 267.05L17.13 261.62L18.59 256.36L20.19 251.28L21.9 246.37L23.74 241.63L25.7 237.07L27.79 232.68L29.99 228.47L32.31 224.43L34.76 220.58L37.32 216.9L40 213.41L42.79 210.09L45.71 206.96L48.74 204.01L51.89 201.24L55.15 198.66L58.52 196.26L62.01 194.05L65.61 192.03L69.33 190.19L73.16 188.55L77.09 187.09L81.14 185.83L85.3 184.75L89.57 183.87L93.95 183.19L98.43 182.7L103.02 182.4L107.72 182.3L109.26 182.26L110.79 182.23L112.32 182.22L113.85 182.24L115.38 182.28L116.91 182.34L118.43 182.42L119.96 182.52L121.48 182.65L122.99 182.8L124.51 182.97L126.02 183.16L127.53 183.37L129.03 183.6L130.53 183.86L132.03 184.13L133.52 184.43L135 184.75L136.49 185.09L137.96 185.45L139.43 185.83L140.9 186.24L142.36 186.66L143.81 187.1L145.26 187.57L146.7 188.06L148.14 188.56L149.57 189.09L150.99 189.64L152.4 190.21L153.81 190.79L155.21 191.4L156.6 192.03L157.98 192.68L159.35 193.35L160.72 194.04L162.07 194.75L163.42 195.49L164.76 196.24L166.08 197.01L166.64 197.34L167.19 197.67L167.75 198L168.32 198.32L168.88 198.64L169.45 198.95L170.02 199.25L170.59 199.55L171.17 199.84L171.75 200.13L172.33 200.42L172.91 200.69L173.5 200.97L174.09 201.23L174.68 201.49L175.27 201.75L175.86 202L176.46 202.24L177.06 202.48L177.66 202.72L178.27 202.94L178.87 203.17L179.48 203.38L180.09 203.59L180.7 203.8L181.32 204L181.93 204.19L182.55 204.38L183.17 204.57L183.79 204.74L184.42 204.91L185.04 205.08L185.67 205.24L186.3 205.39L186.93 205.54L187.56 205.68L188.19 205.82L188.83 205.95L189.46 206.08L190.1 206.19L190.22 202.4L190.49 198.65L190.91 194.95L191.47 191.29L192.17 187.67L193.01 184.11L193.98 180.61L195.09 177.16L196.33 173.77L197.69 170.45L199.18 167.19L200.78 164L202.51 160.88L204.35 157.84L206.3 154.87L208.36 151.99L210.52 149.19L212.79 146.47L215.16 143.85L217.63 141.31L220.19 138.88L222.84 136.54L225.58 134.3L228.4 132.16L231.31 130.14L234.29 128.22L237.36 126.41L240.49 124.72L243.7 123.15L246.97 121.7L250.31 120.37L253.72 119.18L257.18 118.11L260.69 117.17L264.26 116.37L267.88 115.71L271.55 115.19L275.26 114.81L279.01 114.58L282.8 114.5L283.2 114.51L283.58 114.53ZM571.11 278.93L571.35 279.87L571.59 280.81L571.82 281.75L572.04 282.7L572.26 283.64L572.47 284.59L572.67 285.54L572.87 286.49L573.06 287.44L573.24 288.39L573.42 289.35L573.59 290.3L573.76 291.26L573.92 292.21L574.07 293.17L574.22 294.13L574.36 295.09L574.5 296.04L574.63 297.01L574.75 297.97L574.87 298.93L574.98 299.89L575.08 300.86L575.18 301.82L575.27 302.79L575.36 303.75L575.44 304.72L575.51 305.68L575.58 306.65L575.64 307.62L575.69 308.59L575.74 309.56L575.78 310.53L575.82 311.5L575.85 312.47L575.87 313.44L575.88 314.41L575.89 315.38L575.9 316.35L575.78 322.51L575.41 328.62L574.8 334.65L573.96 340.61L572.88 346.49L571.58 352.29L570.05 358L568.31 363.62L566.35 369.15L564.19 374.57L561.82 379.88L559.25 385.09L556.49 390.17L553.55 395.14L550.42 399.98L547.1 404.69L543.62 409.26L539.97 413.7L536.15 417.98L532.17 422.12L528.04 426.11L523.75 429.93L519.32 433.59L514.75 437.08L510.05 440.4L505.21 443.54L500.25 446.49L495.17 449.26L489.97 451.83L484.66 454.2L479.24 456.38L473.72 458.34L468.1 460.09L462.39 461.63L456.59 462.94L450.71 464.02L444.75 464.88L438.72 465.49L432.62 465.87L426.46 466L421.92 465.92L417.42 465.71L412.94 465.36L408.49 464.88L404.08 464.27L399.7 463.53L395.35 462.67L391.05 461.68L386.78 460.56L382.57 459.32L378.39 457.96L374.27 456.48L370.2 454.88L366.18 453.17L362.22 451.34L358.32 449.4L354.48 447.35L350.7 445.18L346.99 442.91L343.35 440.54L339.78 438.05L336.28 435.47L332.85 432.78L329.51 429.99L326.24 427.11L323.06 424.13L319.96 421.05L316.95 417.88L314.03 414.61L311.2 411.26L308.46 407.82L305.83 404.29L303.29 400.67L300.85 396.97L298.52 393.19L296.29 389.33L294.18 385.39L292.17 381.37L290.28 377.27L288.51 373.1L252.51 385.27L255.39 392.12L258.5 398.8L261.84 405.31L265.42 411.64L269.21 417.78L273.21 423.75L277.42 429.52L281.82 435.11L286.42 440.5L291.21 445.7L296.17 450.69L301.3 455.49L306.59 460.07L312.05 464.45L317.65 468.61L323.39 472.55L329.27 476.28L335.28 479.78L341.41 483.06L347.66 486.11L354.02 488.93L360.47 491.5L367.02 493.85L373.66 495.94L380.38 497.8L387.17 499.4L394.03 500.75L400.95 501.85L407.92 502.69L414.94 503.27L421.99 503.58L429.08 503.62L436.19 503.4L443.32 502.9L450.46 502.12L457.6 501.06L464.75 499.71L471.88 498.08L478.99 496.16L486.08 493.94L486.4 493.88L493.39 491.36L500.22 488.58L506.88 485.57L513.38 482.33L519.71 478.85L525.87 475.16L531.85 471.24L537.65 467.13L543.27 462.81L548.7 458.29L553.94 453.59L558.98 448.71L563.83 443.65L568.47 438.43L572.91 433.05L577.14 427.51L581.16 421.83L584.96 416L588.54 410.05L591.9 403.96L595.04 397.76L597.94 391.44L600.61 385.02L603.04 378.5L605.23 371.88L607.17 365.18L608.87 358.4L610.32 351.55L611.51 344.63L612.44 337.65L613.11 330.63L613.51 323.55L613.65 316.44L613.51 309.29L613.09 302.12L612.39 294.94L611.41 287.74L610.15 280.53L608.59 273.33L606.73 266.14L570.87 277.99L571.11 278.93ZM109.27 201.21L107.98 201.25L103.15 201.38L98.51 201.77L94.07 202.4L89.8 203.28L85.72 204.39L81.81 205.72L78.07 207.27L74.51 209.03L71.11 210.99L67.88 213.15L64.8 215.5L61.88 218.02L59.11 220.72L56.48 223.58L54.01 226.59L51.67 229.76L49.47 233.07L47.4 236.51L45.47 240.07L43.66 243.75L41.97 247.55L40.41 251.45L38.96 255.44L37.62 259.52L36.39 263.68L35.27 267.91L34.24 272.21L33.32 276.56L32.49 280.96L31.75 285.41L31.1 289.88L30.53 294.39L30.05 298.91L29.64 303.45L29.3 307.98L29.03 312.52L28.83 317.04L28.69 321.54L28.6 326.02L28.58 330.46L28.73 337.56L29.16 344.59L29.87 351.54L30.85 358.4L32.1 365.18L33.61 371.86L35.38 378.44L37.39 384.92L39.66 391.28L42.16 397.52L44.89 403.64L47.85 409.64L51.04 415.5L54.44 421.22L58.05 426.79L61.87 432.21L65.89 437.48L70.11 442.59L74.51 447.53L79.1 452.29L83.86 456.88L88.8 461.28L93.91 465.5L99.18 469.52L104.6 473.34L110.17 476.95L115.89 480.35L121.75 483.54L127.75 486.5L133.87 489.23L140.11 491.73L146.47 494L152.95 496.01L159.53 497.78L166.21 499.29L172.99 500.54L179.85 501.52L186.8 502.23L193.83 502.66L200.93 502.81L203.43 502.8L205.92 502.76L208.4 502.68L210.89 502.56L213.37 502.41L215.84 502.22L218.31 502L220.78 501.74L223.23 501.44L225.69 501.11L228.13 500.75L230.57 500.35L233.01 499.91L235.43 499.44L237.85 498.93L240.26 498.39L242.66 497.81L245.05 497.2L247.44 496.56L249.81 495.88L252.17 495.17L254.52 494.42L256.87 493.64L259.2 492.82L261.51 491.97L263.82 491.09L266.12 490.17L268.4 489.22L270.67 488.24L272.92 487.22L275.16 486.17L277.39 485.09L279.6 483.97L281.8 482.82L283.98 481.64L286.15 480.43L288.3 479.18L290.44 477.9L292.55 476.59L294.65 475.25L292.46 473.4L290.3 471.53L288.16 469.62L286.05 467.69L283.97 465.73L281.92 463.74L279.9 461.73L277.91 459.69L275.95 457.62L274.02 455.53L272.12 453.41L270.25 451.27L268.41 449.1L266.6 446.9L264.82 444.69L263.07 442.45L261.36 440.18L259.67 437.89L258.02 435.58L256.4 433.25L254.82 430.89L253.26 428.51L251.74 426.11L250.25 423.69L248.8 421.25L247.38 418.79L245.99 416.3L244.64 413.8L243.32 411.28L242.04 408.74L240.79 406.18L239.58 403.6L238.4 401.01L237.26 398.39L236.15 395.76L235.08 393.11L234.04 390.45L233.05 387.76L232.08 385.07L231.16 382.35L231.04 381.98L230.94 381.6L230.86 381.23L230.79 380.85L230.73 380.48L230.69 380.1L230.67 379.73L230.66 379.35L230.67 378.98L230.69 378.61L230.72 378.24L230.77 377.88L230.83 377.52L230.91 377.16L231 376.8L231.1 376.45L231.22 376.11L231.35 375.77L231.49 375.43L231.65 375.1L231.82 374.78L232 374.46L232.19 374.15L232.39 373.85L232.61 373.55L232.83 373.26L233.07 372.99L233.32 372.72L233.58 372.46L233.86 372.21L234.14 371.96L234.43 371.73L234.73 371.51L235.04 371.31L235.37 371.11L235.7 370.92L236.04 370.75L236.39 370.59L236.75 370.45L237.12 370.31L290.85 352.19L373.23 324.5L373.15 320.8L373.02 317.02L372.85 313.15L372.63 309.22L372.35 305.23L372.02 301.19L371.63 297.11L371.17 292.99L370.64 288.86L370.04 284.71L369.37 280.56L368.61 276.42L367.77 272.29L366.85 268.18L365.83 264.12L364.72 260.09L363.51 256.12L362.2 252.21L360.78 248.38L359.26 244.63L357.62 240.96L355.86 237.4L353.98 233.95L351.98 230.62L349.85 227.42L347.59 224.35L345.19 221.43L342.66 218.68L339.98 216.08L337.16 213.67L334.18 211.43L331.05 209.4L327.77 207.57L324.32 205.95L320.71 204.55L316.93 203.39L312.97 202.47L308.84 201.8L304.53 201.39L300.04 201.25L298.74 201.27L297.44 201.29L296.14 201.34L294.85 201.4L293.55 201.47L292.26 201.57L290.97 201.67L289.68 201.79L288.39 201.93L287.11 202.08L285.83 202.25L284.55 202.43L283.27 202.62L282 202.83L280.72 203.06L279.45 203.3L278.19 203.56L276.93 203.83L275.67 204.11L274.41 204.41L273.16 204.73L271.91 205.06L270.67 205.4L269.43 205.76L268.19 206.14L266.96 206.53L265.73 206.93L264.51 207.35L263.29 207.78L262.08 208.23L260.87 208.69L259.66 209.16L258.47 209.65L257.27 210.16L256.08 210.68L254.9 211.21L253.73 211.75L252.56 212.32L251.39 212.89L250.23 213.48L249.27 213.96L248.3 214.44L247.32 214.9L246.34 215.36L245.36 215.8L244.38 216.24L243.39 216.67L242.39 217.09L241.4 217.5L240.4 217.9L239.39 218.29L238.39 218.67L237.38 219.04L236.36 219.41L235.35 219.76L234.33 220.11L233.3 220.44L232.28 220.77L231.25 221.09L230.22 221.4L229.19 221.7L228.15 221.99L227.11 222.27L226.07 222.54L225.03 222.8L223.98 223.05L222.93 223.29L221.88 223.53L220.83 223.75L219.77 223.97L218.71 224.17L217.65 224.37L216.59 224.55L215.53 224.73L214.46 224.9L213.39 225.05L212.33 225.2L211.25 225.34L210.18 225.47L209.11 225.58L209.11 268.23L210.23 268.12L211.35 268L212.47 267.85L213.58 267.69L214.69 267.5L215.8 267.3L216.89 267.08L217.99 266.84L219.08 266.59L220.16 266.31L221.24 266.02L222.31 265.71L223.38 265.38L224.44 265.04L225.5 264.68L226.54 264.3L227.59 263.9L228.62 263.48L229.65 263.05L230.67 262.6L231.68 262.13L232.68 261.65L233.68 261.15L234.67 260.63L235.64 260.1L236.61 259.55L237.58 258.98L238.53 258.4L239.47 257.8L240.4 257.19L241.33 256.56L242.24 255.91L243.14 255.25L244.03 254.57L244.92 253.87L245.79 253.16L246.65 252.44L247.49 251.7L248.33 250.94L249.16 250.17L249.41 249.94L249.67 249.72L249.94 249.51L250.22 249.32L250.5 249.13L250.78 248.96L251.07 248.79L251.36 248.64L251.66 248.5L251.96 248.36L252.27 248.24L252.58 248.13L252.89 248.03L253.2 247.94L253.52 247.87L253.84 247.8L254.16 247.75L254.48 247.7L254.8 247.67L255.13 247.64L255.45 247.63L255.78 247.63L256.1 247.64L256.43 247.67L256.75 247.7L257.07 247.74L257.4 247.8L257.72 247.86L258.03 247.94L258.35 248.03L258.66 248.13L258.97 248.24L259.28 248.36L259.59 248.5L259.89 248.64L260.19 248.8L260.48 248.97L260.77 249.14L261.05 249.33L261.33 249.54L261.64 249.78L261.93 250.03L262.22 250.29L262.49 250.56L262.75 250.84L262.99 251.13L263.22 251.42L263.44 251.73L263.65 252.04L263.84 252.35L264.02 252.68L264.19 253.01L264.34 253.34L264.48 253.68L264.6 254.02L264.72 254.37L264.82 254.72L264.9 255.08L264.97 255.44L265.03 255.8L265.08 256.16L265.11 256.52L265.12 256.89L265.13 257.25L265.12 257.62L265.09 257.98L265.05 258.35L265 258.71L264.93 259.08L264.85 259.44L264.75 259.79L264.64 260.15L264.51 260.5L264.37 260.85L264.22 261.2L264.05 261.54L263.87 261.87L263.67 262.2L263.45 262.53L263.22 262.84L261.99 264.03L260.74 265.19L259.47 266.32L258.18 267.42L256.87 268.5L255.55 269.55L254.2 270.57L252.83 271.56L251.45 272.53L250.05 273.47L248.63 274.38L247.2 275.26L245.75 276.11L244.28 276.93L242.8 277.73L241.31 278.49L239.8 279.22L238.28 279.93L236.74 280.6L235.2 281.25L233.64 281.86L232.07 282.45L230.48 283L228.89 283.53L227.28 284.02L225.67 284.48L224.04 284.91L222.41 285.31L220.77 285.67L219.12 286.01L217.46 286.31L215.8 286.58L214.12 286.82L212.45 287.02L210.76 287.19L209.07 287.33L207.38 287.44L205.68 287.51L203.97 287.55L202.27 287.56L198.77 287.51L195.38 287.38L192.09 287.17L188.91 286.87L185.83 286.51L182.85 286.07L179.98 285.58L177.2 285.02L174.53 284.4L171.95 283.74L169.47 283.03L167.08 282.27L164.79 281.48L162.59 280.66L160.49 279.8L158.48 278.93L156.56 278.03L154.73 277.12L152.99 276.19L151.34 275.26L149.78 274.33L148.3 273.4L146.91 272.48L145.6 271.57L144.38 270.68L143.23 269.8L142.17 268.95L141.19 268.13L140.29 267.35L139.47 266.6L138.73 265.89L138.06 265.24L137.46 264.63L136.95 264.08L136.5 263.59L136.13 263.17L135.83 262.81L135.6 262.53L135.44 262.33L135.35 262.21L135.14 261.9L134.95 261.59L134.77 261.27L134.6 260.94L134.45 260.62L134.31 260.29L134.18 259.95L134.06 259.61L133.96 259.27L133.88 258.93L133.8 258.58L133.74 258.24L133.69 257.89L133.66 257.54L133.64 257.19L133.63 256.84L133.63 256.49L133.64 256.14L133.67 255.8L133.71 255.45L133.77 255.1L133.84 254.76L133.91 254.42L134.01 254.09L134.11 253.75L134.23 253.42L134.35 253.1L134.5 252.77L134.65 252.46L134.81 252.14L134.99 251.84L135.18 251.54L135.38 251.24L135.59 250.95L135.82 250.67L136.06 250.4L136.31 250.13L136.57 249.88L136.84 249.63L137.12 249.39L137.43 249.14L137.75 248.92L138.07 248.7L138.39 248.51L138.73 248.32L139.07 248.16L139.41 248L139.76 247.86L140.11 247.74L140.46 247.62L140.82 247.53L141.18 247.45L141.54 247.38L141.9 247.32L142.27 247.28L142.63 247.26L143 247.25L143.36 247.25L143.73 247.26L144.09 247.29L144.45 247.34L144.81 247.39L145.17 247.47L145.53 247.55L145.88 247.65L146.23 247.76L146.57 247.89L146.91 248.03L147.25 248.18L147.58 248.35L147.9 248.53L148.22 248.72L148.53 248.93L148.84 249.15L149.13 249.38L149.42 249.62L149.71 249.88L149.98 250.16L150.24 250.44L150.5 250.74L150.56 250.82L150.67 250.95L150.82 251.11L151 251.32L151.23 251.57L151.5 251.85L151.82 252.17L152.17 252.51L152.58 252.89L153.02 253.3L153.51 253.73L154.05 254.19L154.63 254.66L155.26 255.16L155.94 255.67L156.66 256.2L157.44 256.74L158.26 257.3L159.13 257.86L160.06 258.42L161.03 259L162.06 259.57L163.14 260.15L164.27 260.72L165.45 261.29L166.7 261.85L167.99 262.41L169.34 262.95L170.75 263.48L172.21 264L173.73 264.5L175.31 264.98L176.95 265.44L178.64 265.88L180.4 266.3L182.22 266.68L184.09 267.04L186.03 267.36L188.03 267.66L190.1 267.91L190.1 225.27L189.23 225.15L188.36 225.03L187.49 224.89L186.62 224.75L185.75 224.6L184.89 224.44L184.03 224.27L183.17 224.09L182.31 223.91L181.46 223.71L180.6 223.51L179.75 223.3L178.91 223.08L178.06 222.85L177.22 222.61L176.38 222.36L175.54 222.11L174.7 221.84L173.87 221.57L173.04 221.29L172.21 221L171.39 220.7L170.57 220.4L169.75 220.08L168.94 219.76L168.13 219.43L167.32 219.09L166.51 218.74L165.71 218.38L164.92 218.02L164.12 217.65L163.33 217.27L162.55 216.88L161.76 216.48L160.98 216.07L160.21 215.66L159.44 215.24L158.67 214.81L157.91 214.37L157.15 213.92L156.03 213.26L154.91 212.62L153.78 211.99L152.64 211.37L151.5 210.78L150.34 210.2L149.18 209.64L148.01 209.1L146.84 208.58L145.65 208.07L144.47 207.58L143.27 207.11L142.07 206.65L140.86 206.22L139.65 205.8L138.43 205.4L137.2 205.01L135.97 204.65L134.74 204.3L133.49 203.97L132.25 203.66L131 203.37L129.75 203.09L128.49 202.83L127.23 202.6L125.96 202.38L124.69 202.17L123.42 201.99L122.15 201.83L120.87 201.68L119.59 201.55L118.31 201.44L117.02 201.35L115.73 201.28L114.44 201.23L113.15 201.2L111.86 201.18L110.57 201.19L109.27 201.21ZM308.46 371.54L310.57 375.9L312.83 380.14L315.23 384.28L317.76 388.3L320.42 392.21L323.21 396L326.13 399.67L329.17 403.22L332.32 406.64L335.58 409.94L338.96 413.12L342.43 416.16L346.01 419.08L349.68 421.86L353.44 424.51L357.29 427.02L361.22 429.39L365.23 431.61L369.32 433.7L373.48 435.64L377.7 437.44L381.99 439.08L386.34 440.57L390.74 441.92L395.19 443.1L399.68 444.13L404.22 445L408.8 445.71L413.41 446.25L418.05 446.63L422.72 446.85L427.4 446.89L432.11 446.76L436.83 446.46L441.56 445.99L446.29 445.34L451.03 444.51L455.76 443.49L460.48 442.3L434.25 367.52L434.13 367.15L434.02 366.78L433.93 366.4L433.85 366.03L433.79 365.65L433.75 365.28L433.72 364.9L433.71 364.53L433.71 364.16L433.72 363.79L433.75 363.42L433.79 363.05L433.85 362.69L433.92 362.33L434.01 361.97L434.11 361.62L434.22 361.27L434.35 360.93L434.48 360.59L434.64 360.26L434.8 359.93L434.97 359.61L435.16 359.3L435.36 358.99L435.58 358.69L435.8 358.4L436.03 358.12L436.28 357.85L436.54 357.58L436.81 357.33L437.09 357.08L437.37 356.85L437.67 356.62L437.98 356.41L438.3 356.21L438.63 356.02L438.97 355.84L439.32 355.68L439.68 355.53L440.05 355.39L440.42 355.27L440.79 355.16L441.17 355.07L441.54 354.99L441.92 354.93L442.29 354.89L442.67 354.86L443.04 354.85L443.42 354.85L443.79 354.86L444.16 354.89L444.52 354.93L444.89 354.99L445.25 355.06L445.6 355.15L445.95 355.25L446.3 355.36L446.65 355.49L446.98 355.62L447.32 355.78L447.64 355.94L447.96 356.12L448.28 356.3L448.58 356.5L448.88 356.72L449.17 356.94L449.45 357.17L449.73 357.42L449.99 357.68L450.24 357.95L450.49 358.23L450.72 358.52L450.95 358.82L451.16 359.13L451.36 359.45L451.55 359.78L451.73 360.11L451.89 360.46L452.04 360.82L452.18 361.19L478.29 436.09L480.18 435.25L482.05 434.39L483.9 433.49L485.74 432.57L487.57 431.62L489.37 430.65L491.16 429.64L492.93 428.61L494.68 427.55L496.42 426.46L498.13 425.35L499.83 424.21L501.51 423.05L503.17 421.86L504.81 420.64L506.43 419.4L508.03 418.13L509.61 416.84L511.17 415.52L512.71 414.18L514.22 412.82L515.72 411.43L517.19 410.02L518.64 408.58L520.07 407.13L521.48 405.65L522.86 404.14L524.22 402.62L525.56 401.07L526.87 399.5L528.16 397.91L529.42 396.3L530.66 394.67L531.87 393.01L533.06 391.34L534.22 389.64L535.36 387.93L536.47 386.2L537.56 384.44L538.61 382.67L474.17 346.55L474.14 346.54L474.11 346.52L474.1 346.51L474.09 346.51L474.06 346.49L474.03 346.47L474.01 346.46L473.99 346.45L473.95 346.43L473.94 346.43L473.92 346.42L473.89 346.4L473.86 346.38L473.85 346.37L473.82 346.36L473.49 346.15L473.16 345.93L472.85 345.71L472.55 345.47L472.26 345.22L471.99 344.96L471.72 344.7L471.47 344.42L471.23 344.13L471 343.84L470.79 343.54L470.59 343.23L470.4 342.92L470.22 342.6L470.05 342.27L469.9 341.94L469.76 341.6L469.64 341.26L469.52 340.91L469.43 340.56L469.34 340.2L469.27 339.85L469.21 339.49L469.17 339.12L469.13 338.76L469.12 338.39L469.12 338.02L469.13 337.66L469.15 337.29L469.19 336.92L469.25 336.55L469.32 336.19L469.4 335.82L469.5 335.46L469.62 335.1L469.75 334.74L469.89 334.39L470.05 334.04L470.23 333.69L470.42 333.35L470.62 333.02L470.84 332.69L471.07 332.38L471.3 332.08L471.55 331.8L471.81 331.52L472.08 331.26L472.35 331L472.64 330.76L472.93 330.54L473.23 330.32L473.54 330.12L473.85 329.93L474.18 329.75L474.5 329.58L474.84 329.43L475.17 329.29L475.52 329.17L475.86 329.06L476.21 328.96L476.57 328.87L476.93 328.8L477.29 328.74L477.65 328.7L478.02 328.67L478.38 328.65L478.75 328.65L479.12 328.66L479.48 328.68L479.85 328.72L480.22 328.78L480.58 328.85L480.95 328.93L481.31 329.03L481.67 329.15L482.03 329.28L482.38 329.42L482.73 329.58L483.08 329.76L483.42 329.95L547.17 365.62L547.95 363.68L548.69 361.72L549.4 359.76L550.08 357.78L550.73 355.8L551.35 353.81L551.93 351.81L552.48 349.8L553 347.79L553.48 345.77L553.93 343.74L554.35 341.71L554.74 339.67L555.09 337.63L555.41 335.58L555.7 333.53L555.95 331.48L556.17 329.42L556.36 327.36L556.52 325.29L556.64 323.23L556.73 321.16L556.79 319.09L556.81 317.02L556.81 314.95L556.76 312.87L556.69 310.8L556.58 308.73L556.44 306.66L556.26 304.59L556.05 302.53L555.81 300.46L555.54 298.4L555.23 296.34L554.89 294.29L554.51 292.23L554.11 290.19L553.66 288.14L553.19 286.1L552.68 284.07L306.5 367.08L308.46 371.54Z" id="d13MmXwNuj"></path></defs><g><g><g><use xlink:href="#d13MmXwNuj" opacity="1" fill="#ee6344" fill-opacity="1"></use><g><use xlink:href="#d13MmXwNuj" opacity="1" fill-opacity="0" stroke="#000000" stroke-width="1" stroke-opacity="0"></use></g></g></g></g></svg>