<?xml version="1.0" encoding="UTF-8" standalone="no"?>
<!DOCTYPE svg PUBLIC "-//W3C//DTD SVG 1.1//EN" "http://www.w3.org/Graphics/SVG/1.1/DTD/svg11.dtd">
<svg version="1.1" xmlns="http://www.w3.org/2000/svg" xmlns:xlink="http://www.w3.org/1999/xlink" preserveAspectRatio="xMidYMid meet" viewBox="0 0 640 640" width="640" height="640"><defs><path d="M484.34 100.12L484.35 100.12L484.36 100.12L484.37 100.12L484.38 100.13L484.39 100.13L484.41 100.13L484.42 100.13L484.45 100.14L484.47 100.14L484.48 100.14L484.49 100.14L484.51 100.14L484.52 100.15L484.53 100.15L484.54 100.15L484.55 100.15L484.58 100.15L484.61 100.15L484.64 100.15L484.67 100.15L484.7 100.15L484.73 100.15L484.77 100.15L484.8 100.16L484.83 100.16L484.86 100.16L484.89 100.16L484.92 100.17L484.95 100.17L484.98 100.17L485.01 100.17L485.04 100.18L485.07 100.18L485.1 100.18L485.13 100.19L485.16 100.19L485.19 100.19L485.22 100.2L485.25 100.2L485.28 100.2L485.31 100.21L485.34 100.21L485.36 100.22L485.39 100.22L485.42 100.22L485.45 100.23L485.48 100.23L485.51 100.24L485.54 100.24L485.57 100.25L485.6 100.25L485.63 100.26L485.66 100.26L485.69 100.26L485.72 100.27L485.75 100.27L485.77 100.28L485.79 100.28L485.81 100.28L485.83 100.29L485.84 100.29L485.88 100.29L485.92 100.3L485.94 100.3L485.99 100.31L486.01 100.31L486.05 100.31L486.09 100.32L486.13 100.32L486.15 100.33L486.16 100.33L486.18 100.33L486.2 100.34L486.22 100.34L486.24 100.34L486.26 100.34L486.28 100.35L486.29 100.35L486.31 100.35L486.33 100.36L486.35 100.36L486.37 100.36L486.39 100.37L486.41 100.37L486.42 100.37L486.44 100.38L486.46 100.38L486.48 100.38L486.5 100.39L486.53 100.4L486.56 100.4L486.59 100.41L486.62 100.42L486.66 100.43L486.69 100.44L486.72 100.44L486.75 100.45L486.78 100.46L486.81 100.47L486.84 100.48L486.88 100.49L486.91 100.5L486.94 100.51L486.97 100.52L487 100.53L487.03 100.54L487.06 100.55L487.09 100.56L487.12 100.57L487.15 100.58L487.18 100.59L487.21 100.6L487.25 100.61L487.28 100.62L487.31 100.63L487.34 100.65L487.37 100.66L487.4 100.67L487.43 100.68L487.46 100.69L487.49 100.7L487.52 100.71L487.55 100.73L487.58 100.74L487.61 100.75L487.64 100.76L487.67 100.77L487.7 100.79L487.73 100.8L487.75 100.8L487.76 100.81L487.78 100.81L487.8 100.82L487.81 100.82L487.83 100.83L487.84 100.84L487.86 100.84L487.87 100.85L487.9 100.86L487.92 100.86L487.95 100.87L488.02 100.9L488.04 100.9L488.07 100.91L488.1 100.92L488.12 100.93L488.13 100.93L488.15 100.94L488.16 100.94L488.18 100.95L488.19 100.95L488.21 100.96L488.22 100.96L488.24 100.97L488.25 100.98L488.27 100.98L488.28 100.99L488.3 100.99L488.31 101L488.33 101.01L488.34 101.01L488.38 101.03L488.43 101.05L488.47 101.08L488.51 101.1L488.56 101.12L488.6 101.14L488.64 101.16L488.69 101.18L488.73 101.2L488.77 101.23L488.82 101.25L488.86 101.27L488.9 101.29L488.94 101.32L488.98 101.34L489.03 101.36L489.07 101.39L489.11 101.41L489.15 101.43L489.19 101.46L489.23 101.48L489.27 101.51L489.32 101.53L489.36 101.56L489.4 101.58L489.44 101.61L489.48 101.63L489.52 101.66L489.56 101.68L489.6 101.71L489.64 101.74L489.68 101.76L489.72 101.79L489.76 101.82L489.8 101.84L489.84 101.87L489.87 101.9L489.91 101.93L489.95 101.96L489.99 101.98L490 101.99L490.01 102L490.02 102L490.02 102.01L490.03 102.02L490.04 102.02L490.05 102.03L490.06 102.04L490.07 102.05L490.08 102.06L490.09 102.07L490.1 102.08L490.11 102.09L490.13 102.1L490.14 102.11L490.17 102.14L490.19 102.16L490.2 102.17L490.21 102.18L490.22 102.19L490.22 102.19L490.23 102.2L490.24 102.21L490.25 102.22L490.26 102.22L490.27 102.24L490.28 102.24L490.29 102.25L490.3 102.26L490.3 102.26L490.33 102.29L490.36 102.31L490.39 102.34L490.42 102.36L490.45 102.38L490.48 102.41L490.51 102.43L490.54 102.46L490.57 102.48L490.6 102.51L490.63 102.53L490.66 102.56L490.68 102.58L490.71 102.61L490.74 102.63L490.77 102.66L490.8 102.68L490.83 102.71L490.86 102.73L490.88 102.76L490.91 102.78L490.94 102.81L490.97 102.83L491 102.86L491.02 102.89L491.05 102.91L491.08 102.94L491.11 102.97L491.13 102.99L491.16 103.02L491.19 103.05L491.22 103.07L491.24 103.1L491.27 103.13L491.3 103.16L491.32 103.18L491.35 103.21L491.37 103.24L491.4 103.27L491.43 103.3L491.43 103.3L491.44 103.31L491.45 103.32L491.46 103.32L491.48 103.34L491.49 103.35L491.49 103.36L491.51 103.37L491.51 103.37L491.51 103.37L491.52 103.38L491.52 103.39L491.53 103.4L491.54 103.41L491.55 103.42L491.56 103.43L491.57 103.44L491.58 103.45L491.59 103.47L491.59 103.48L491.6 103.49L491.61 103.5L491.62 103.51L491.63 103.53L491.64 103.54L491.65 103.55L491.65 103.56L491.66 103.57L491.67 103.59L491.68 103.6L491.69 103.62L491.73 103.69L491.75 103.71L491.77 103.74L491.77 103.75L491.78 103.76L491.79 103.77L491.8 103.79L491.81 103.8L491.82 103.81L491.82 103.82L491.83 103.84L491.84 103.85L491.85 103.86L491.86 103.87L491.88 103.9L491.92 103.95L491.94 103.97L491.96 104L491.97 104.02L491.99 104.05L492.01 104.07L492.03 104.09L492.05 104.12L492.07 104.14L492.09 104.17L492.11 104.19L492.12 104.22L492.14 104.24L492.16 104.27L492.18 104.29L492.2 104.32L492.22 104.34L492.23 104.37L492.25 104.39L492.27 104.42L492.29 104.45L492.31 104.47L492.32 104.5L492.34 104.52L492.36 104.55L492.38 104.57L492.39 104.6L492.41 104.63L492.43 104.65L492.44 104.68L492.46 104.7L492.48 104.73L492.49 104.76L492.51 104.78L492.53 104.81L492.54 104.84L492.56 104.86L492.57 104.89L492.58 104.91L492.59 104.93L492.6 104.94L492.61 104.96L492.62 104.98L492.63 105L492.64 105.01L492.65 105.03L492.66 105.05L492.67 105.07L492.68 105.08L492.69 105.1L492.7 105.12L492.71 105.14L492.71 105.16L492.72 105.17L492.73 105.19L492.74 105.21L492.75 105.23L492.76 105.25L492.77 105.27L492.78 105.3L492.79 105.32L492.8 105.34L492.82 105.37L492.86 105.47L492.87 105.48L492.88 105.52L492.89 105.54L492.9 105.56L492.91 105.58L492.92 105.59L492.93 105.61L492.95 105.66L492.96 105.69L492.97 105.72L492.99 105.74L493 105.77L493.01 105.79L493.02 105.82L493.04 105.85L493.05 105.87L493.06 105.9L493.07 105.92L493.08 105.95L493.1 105.97L493.11 106L493.12 106.03L493.13 106.05L493.14 106.08L493.15 106.11L493.17 106.13L493.18 106.16L493.19 106.18L493.2 106.21L493.21 106.24L493.22 106.26L493.23 106.29L493.24 106.32L493.25 106.34L493.26 106.37L493.27 106.4L493.28 106.42L493.29 106.45L493.3 106.48L493.31 106.51L493.32 106.53L493.33 106.56L493.34 106.59L493.35 106.62L493.36 106.64L493.37 106.67L493.38 106.69L493.39 106.71L493.39 106.74L493.4 106.76L493.41 106.78L493.41 106.8L493.42 106.82L493.42 106.84L493.43 106.86L493.44 106.89L493.44 106.91L493.45 106.93L493.45 106.95L493.46 106.97L493.47 106.99L493.47 107.02L493.48 107.04L493.48 107.06L493.49 107.08L493.49 107.1L493.5 107.12L493.5 107.15L493.51 107.19L493.52 107.23L493.53 107.28L493.54 107.32L493.55 107.36L493.56 107.41L493.57 107.45L493.58 107.47L493.58 107.49L493.59 107.52L493.59 107.54L493.6 107.56L493.6 107.57L493.61 107.59L493.61 107.61L493.62 107.63L493.62 107.65L493.62 107.66L493.63 107.68L493.63 107.7L493.64 107.72L493.64 107.73L493.65 107.75L493.66 107.79L493.66 107.8L493.67 107.82L493.68 107.87L493.69 107.91L493.7 107.94L493.71 107.96L493.71 107.98L493.72 108L493.72 108.01L493.73 108.03L493.73 108.05L493.74 108.07L493.74 108.09L493.75 108.1L493.75 108.12L493.75 108.14L493.76 108.16L493.76 108.17L493.76 108.19L493.77 108.21L493.77 108.23L493.77 108.25L558.3 532.9L558.33 533.1L558.35 533.31L558.37 533.52L558.39 533.72L558.4 533.93L558.41 534.14L558.41 534.34L558.41 534.55L558.4 534.75L558.39 534.96L558.37 535.16L558.35 535.37L558.33 535.57L558.3 535.77L558.27 535.98L558.23 536.18L558.19 536.38L558.14 536.58L558.09 536.77L558.04 536.97L557.98 537.17L557.92 537.36L557.85 537.56L557.78 537.75L557.71 537.94L557.63 538.13L557.54 538.32L557.46 538.5L557.36 538.69L557.27 538.87L557.17 539.05L557.07 539.23L556.96 539.4L556.85 539.58L556.73 539.75L556.61 539.92L556.49 540.09L556.36 540.26L556.23 540.42L556.1 540.58L555.96 540.74L555.82 540.89L555.68 541.04L555.53 541.19L555.38 541.33L555.23 541.47L555.07 541.6L554.91 541.74L554.75 541.87L554.59 541.99L554.43 542.11L554.26 542.23L554.09 542.34L553.91 542.45L553.74 542.56L553.56 542.66L553.38 542.76L553.2 542.86L553.02 542.95L552.83 543.04L552.65 543.12L552.46 543.2L552.27 543.27L552.08 543.35L551.88 543.41L551.69 543.48L551.49 543.53L551.3 543.59L551.1 543.64L550.9 543.69L550.69 543.73L550.49 543.77L550.29 543.8L550.08 543.83L549.88 543.85L549.67 543.87L549.47 543.89L549.26 543.9L549.05 543.91L548.84 543.91L75.9 543.91L75.69 543.91L75.47 543.9L75.26 543.89L75.05 543.87L74.85 543.85L74.64 543.83L74.43 543.8L74.22 543.76L74.02 543.72L73.82 543.68L73.61 543.63L73.41 543.58L73.21 543.52L73.01 543.46L72.82 543.4L72.62 543.33L72.43 543.26L72.23 543.18L72.04 543.1L71.86 543.01L71.67 542.92L71.48 542.83L71.3 542.73L71.12 542.63L70.94 542.52L70.77 542.41L70.59 542.3L70.42 542.18L70.25 542.06L70.08 541.94L69.92 541.81L69.76 541.68L69.6 541.54L69.44 541.4L69.29 541.26L69.14 541.11L68.99 540.96L68.85 540.81L68.71 540.65L68.57 540.49L68.44 540.33L68.3 540.16L68.18 539.99L68.06 539.82L67.94 539.65L67.82 539.47L67.71 539.29L67.61 539.11L67.5 538.93L67.41 538.75L67.31 538.56L67.22 538.37L67.14 538.18L67.06 537.99L66.98 537.8L66.91 537.61L66.84 537.41L66.77 537.21L66.71 537.02L66.66 536.82L66.61 536.62L66.56 536.41L66.52 536.21L66.48 536.01L66.44 535.8L66.41 535.6L66.39 535.39L66.37 535.19L66.35 534.98L66.34 534.77L66.33 534.56L66.33 534.35L66.33 534.14L66.34 533.93L66.35 533.73L66.37 533.52L66.39 533.31L66.41 533.1L66.44 532.89L66.48 532.68L124.81 201.71L98.79 201.71L98.4 201.7L98.01 201.68L97.62 201.64L97.24 201.59L96.86 201.52L96.49 201.43L96.13 201.34L95.77 201.23L95.41 201.1L95.07 200.96L94.73 200.81L94.39 200.65L94.07 200.47L93.75 200.28L93.44 200.08L93.14 199.87L92.85 199.65L92.56 199.41L92.29 199.17L92.03 198.91L91.77 198.65L91.53 198.37L91.29 198.09L91.07 197.8L90.86 197.5L90.66 197.19L90.47 196.87L90.29 196.54L90.13 196.21L89.98 195.87L89.84 195.52L89.71 195.17L89.6 194.81L89.5 194.45L89.42 194.08L89.35 193.7L89.3 193.32L89.26 192.93L89.23 192.54L89.23 192.15L89.23 109.69L89.23 109.29L89.26 108.9L89.3 108.52L89.35 108.13L89.42 107.76L89.5 107.39L89.6 107.02L89.71 106.66L89.84 106.31L89.98 105.96L90.13 105.62L90.29 105.29L90.47 104.96L90.66 104.65L90.86 104.34L91.07 104.04L91.29 103.74L91.53 103.46L91.77 103.19L92.03 102.92L92.29 102.67L92.56 102.42L92.85 102.19L93.14 101.97L93.44 101.75L93.75 101.55L94.07 101.37L94.39 101.19L94.73 101.02L95.07 100.87L95.41 100.73L95.77 100.61L96.13 100.5L96.49 100.4L96.86 100.32L97.24 100.25L97.62 100.19L98.01 100.15L98.4 100.13L98.79 100.12L484.32 100.12L484.33 100.12L484.34 100.12ZM537.72 524.76L484.85 176.84L437.58 524.76L537.72 524.76ZM108.37 182.57L391.68 182.57L392.08 182.58L392.47 182.6L392.86 182.64L393.24 182.69L393.61 182.76L393.98 182.85L394.35 182.94L394.71 183.06L395.06 183.18L395.41 183.32L395.75 183.47L396.08 183.63L396.41 183.81L396.73 184L397.03 184.2L397.34 184.41L397.63 184.64L397.91 184.87L398.19 185.11L398.45 185.37L398.7 185.63L398.95 185.91L399.18 186.19L399.41 186.48L399.62 186.78L399.82 187.09L400.01 187.41L400.18 187.74L400.35 188.07L400.5 188.41L400.64 188.76L400.76 189.11L400.88 189.47L400.97 189.83L401.06 190.2L401.13 190.58L401.18 190.96L401.22 191.35L401.24 191.74L401.25 192.13L401.24 192.53L401.22 192.92L401.18 193.31L401.13 193.69L401.06 194.06L400.97 194.43L400.88 194.8L400.76 195.16L400.64 195.51L400.5 195.86L400.35 196.2L400.18 196.53L400.01 196.86L399.82 197.17L399.62 197.48L399.41 197.79L399.18 198.08L398.95 198.36L398.7 198.64L398.45 198.9L398.19 199.15L397.91 199.4L397.63 199.63L397.34 199.86L397.03 200.07L396.73 200.27L396.41 200.46L396.08 200.63L395.75 200.8L395.41 200.95L395.06 201.09L394.71 201.21L394.35 201.32L393.98 201.42L393.61 201.51L393.24 201.57L392.86 201.63L392.47 201.67L392.08 201.69L391.68 201.7L144.24 201.7L87.31 524.76L418.28 524.76L473.37 119.24L108.37 119.24L108.37 182.57Z" id="a4oyKAqZ2Q"></path></defs><g><g><g><use xlink:href="#a4oyKAqZ2Q" opacity="1" fill="#ee6344" fill-opacity="1"></use><g><use xlink:href="#a4oyKAqZ2Q" opacity="1" fill-opacity="0" stroke="#000000" stroke-width="1" stroke-opacity="0"></use></g></g></g></g></svg>