<?xml version="1.0" encoding="UTF-8" standalone="no"?>
<!DOCTYPE svg PUBLIC "-//W3C//DTD SVG 1.1//EN" "http://www.w3.org/Graphics/SVG/1.1/DTD/svg11.dtd">
<svg version="1.1" xmlns="http://www.w3.org/2000/svg" xmlns:xlink="http://www.w3.org/1999/xlink" preserveAspectRatio="xMidYMid meet" viewBox="0 0 640 640" width="640" height="640"><defs><path d="M342.96 23.93L354.88 25.14L366.66 26.82L378.29 28.96L389.75 31.55L401.04 34.58L412.15 38.04L423.07 41.92L433.78 46.22L444.29 50.91L454.58 55.99L464.64 61.46L474.45 67.3L484.02 73.51L493.34 80.06L502.38 86.97L511.15 94.2L519.63 101.76L527.81 109.64L535.69 117.82L543.25 126.3L550.48 135.07L557.39 144.11L563.94 153.43L570.15 163L575.99 172.81L581.46 182.87L586.54 193.16L591.24 203.67L595.53 214.38L599.41 225.3L602.87 236.41L605.9 247.7L608.49 259.16L610.63 270.79L612.31 282.57L613.52 294.49L614.25 306.55L614.5 318.73L614.25 330.91L613.52 342.96L612.31 354.88L610.63 366.66L608.49 378.29L605.9 389.75L602.87 401.04L599.41 412.15L595.53 423.07L591.24 433.78L586.54 444.29L581.46 454.58L575.99 464.64L570.15 474.45L563.94 484.02L557.39 493.34L550.48 502.38L543.25 511.15L535.69 519.63L527.81 527.81L519.63 535.69L511.15 543.25L502.38 550.48L493.34 557.39L484.02 563.94L474.45 570.15L464.64 575.99L454.58 581.46L444.29 586.54L433.78 591.24L423.07 595.53L412.15 599.41L401.04 602.87L389.75 605.9L378.29 608.49L366.66 610.63L354.88 612.31L342.96 613.52L330.91 614.25L318.73 614.5L306.55 614.25L294.49 613.52L282.57 612.31L270.79 610.63L259.16 608.49L247.7 605.9L236.41 602.87L225.3 599.41L214.38 595.53L203.67 591.24L193.16 586.54L182.87 581.46L172.81 575.99L163 570.15L153.43 563.94L144.11 557.39L135.07 550.48L126.3 543.25L117.82 535.69L109.64 527.81L101.76 519.63L94.2 511.15L86.97 502.38L80.06 493.34L73.51 484.02L67.3 474.45L61.46 464.64L55.99 454.58L50.91 444.29L46.22 433.78L41.92 423.07L38.04 412.15L34.58 401.04L31.55 389.75L28.96 378.29L26.82 366.66L25.14 354.88L23.93 342.96L23.2 330.91L22.95 318.73L23.2 306.55L23.93 294.49L25.14 282.57L26.82 270.79L28.96 259.16L31.55 247.7L34.58 236.41L38.04 225.3L41.92 214.38L46.22 203.67L50.91 193.16L55.99 182.87L61.46 172.81L67.3 163L73.51 153.43L80.06 144.11L86.97 135.07L94.2 126.3L101.76 117.82L109.64 109.64L117.82 101.76L126.3 94.2L135.07 86.97L144.11 80.06L153.43 73.51L163 67.3L172.81 61.46L182.87 55.99L193.16 50.91L203.67 46.22L214.38 41.92L225.3 38.04L236.41 34.58L247.7 31.55L259.16 28.96L270.79 26.82L282.57 25.14L294.49 23.93L306.55 23.2L318.73 22.95L330.91 23.2L342.96 23.93ZM296.09 42.99L284.96 44.13L273.96 45.7L263.1 47.71L252.39 50.14L241.83 52.98L231.45 56.22L221.24 59.85L211.23 63.87L201.4 68.27L191.78 73.03L182.38 78.16L173.19 83.63L164.24 89.44L155.53 95.58L147.07 102.04L138.86 108.81L130.93 115.89L123.27 123.27L115.89 130.93L108.81 138.86L102.04 147.07L95.58 155.53L89.44 164.24L83.63 173.19L78.16 182.38L73.03 191.78L68.27 201.4L63.87 211.23L59.85 221.24L56.22 231.45L52.98 241.83L50.14 252.39L47.71 263.1L45.7 273.96L44.13 284.96L42.99 296.09L42.3 307.35L42.07 318.73L42.3 330.1L42.99 341.36L44.13 352.49L45.7 363.49L47.71 374.35L50.14 385.06L52.98 395.62L56.22 406L59.85 416.21L63.87 426.23L68.27 436.05L73.03 445.67L78.16 455.08L83.63 464.26L89.44 473.21L95.58 481.92L102.04 490.38L108.81 498.59L115.89 506.52L123.27 514.18L130.93 521.56L138.86 528.64L147.07 535.41L155.53 541.87L164.24 548.01L173.19 553.82L182.38 559.29L191.78 564.42L201.4 569.18L211.23 573.58L221.24 577.6L231.45 581.23L241.83 584.47L252.39 587.31L263.1 589.74L273.96 591.75L284.96 593.32L296.09 594.46L307.35 595.15L318.73 595.38L330.1 595.15L341.36 594.46L352.49 593.32L363.49 591.75L374.35 589.74L385.06 587.31L395.62 584.47L406 581.23L416.21 577.6L426.23 573.58L436.05 569.18L445.67 564.42L455.08 559.29L464.26 553.82L473.21 548.01L481.92 541.87L490.38 535.41L498.59 528.64L506.52 521.56L514.18 514.18L521.56 506.52L528.64 498.59L535.41 490.38L541.87 481.92L548.01 473.21L553.82 464.26L559.29 455.08L564.42 445.67L569.18 436.05L573.58 426.23L577.6 416.21L581.23 406L584.47 395.62L587.31 385.06L589.74 374.35L591.75 363.49L593.32 352.49L594.46 341.36L595.15 330.1L595.38 318.73L595.15 307.35L594.46 296.09L593.32 284.96L591.75 273.96L589.74 263.1L587.31 252.39L584.47 241.83L581.23 231.45L577.6 221.24L573.58 211.23L569.18 201.4L564.42 191.78L559.29 182.38L553.82 173.19L548.01 164.24L541.87 155.53L535.41 147.07L528.64 138.86L521.56 130.93L514.18 123.27L506.52 115.89L498.59 108.81L490.38 102.04L481.92 95.58L473.21 89.44L464.26 83.63L455.08 78.16L445.67 73.03L436.05 68.27L426.23 63.87L416.21 59.85L406 56.22L395.62 52.98L385.06 50.14L374.35 47.71L363.49 45.7L352.49 44.13L341.36 42.99L330.1 42.3L318.73 42.07L307.35 42.3L296.09 42.99Z" id="c1tFpGW9OF"></path><path d="M212.35 246.32L214.58 246.65L216.78 247.1L218.95 247.68L221.09 248.38L223.19 249.2L225.26 250.14L227.29 251.19L229.28 252.35L231.23 253.62L233.14 255.01L235.01 256.49L236.83 258.08L238.6 259.77L240.32 261.56L242 263.44L243.62 265.42L245.18 267.49L246.69 269.64L248.15 271.88L249.54 274.21L250.87 276.62L252.14 279.1L253.35 281.66L254.49 284.3L255.57 287.01L256.57 289.78L257.51 292.63L258.37 295.54L259.15 298.51L259.87 301.54L260.5 304.63L261.05 307.77L261.53 310.97L261.92 314.21L262.23 317.51L262.45 320.84L262.58 324.23L262.63 327.65L262.59 331.07L262.45 334.45L262.24 337.79L261.94 341.09L261.56 344.33L261.09 347.53L260.55 350.67L259.93 353.76L259.23 356.79L258.46 359.76L257.61 362.67L256.69 365.51L255.7 368.29L254.65 371L253.52 373.64L252.33 376.2L251.07 378.68L249.75 381.09L248.37 383.42L246.93 385.66L245.43 387.81L243.88 389.88L242.27 391.86L240.6 393.74L238.88 395.53L237.11 397.22L235.29 398.81L233.42 400.29L231.51 401.67L229.55 402.95L227.55 404.11L225.5 405.16L223.42 406.1L221.29 406.92L219.13 407.62L216.93 408.2L214.7 408.65L212.43 408.98L210.14 409.18L207.81 409.24L205.53 409.18L203.27 408.98L201.04 408.65L198.84 408.2L196.67 407.62L194.53 406.92L192.43 406.1L190.36 405.16L188.33 404.11L186.33 402.95L184.38 401.67L182.47 400.29L180.61 398.81L178.79 397.22L177.02 395.53L175.29 393.74L173.62 391.86L172 389.88L170.43 387.81L168.92 385.66L167.47 383.42L166.08 381.09L164.74 378.68L163.47 376.2L162.27 373.64L161.12 371L160.05 368.29L159.05 365.51L158.11 362.67L157.25 359.76L156.46 356.79L155.75 353.76L155.12 350.67L154.56 347.53L154.09 344.33L153.7 341.09L153.39 337.79L153.17 334.45L153.03 331.07L152.99 327.65L153.03 324.23L153.17 320.84L153.39 317.51L153.7 314.21L154.09 310.97L154.56 307.77L155.12 304.63L155.75 301.54L156.46 298.51L157.25 295.54L158.11 292.63L159.05 289.78L160.05 287.01L161.12 284.3L162.27 281.66L163.47 279.1L164.74 276.62L166.08 274.21L167.47 271.88L168.92 269.64L170.43 267.49L172 265.42L173.62 263.44L175.29 261.56L177.02 259.77L178.79 258.08L180.61 256.49L182.47 255.01L184.38 253.62L186.33 252.35L188.33 251.19L190.36 250.14L192.43 249.2L194.53 248.38L196.67 247.68L198.84 247.1L201.04 246.65L203.27 246.32L205.53 246.12L207.81 246.06L210.09 246.12L212.35 246.32ZM204.96 265.39L203.55 265.65L202.16 266.02L200.78 266.48L199.42 267.04L198.08 267.69L196.75 268.43L195.45 269.27L194.16 270.19L192.9 271.2L191.66 272.29L190.45 273.46L189.27 274.71L188.11 276.04L186.98 277.44L185.88 278.91L184.82 280.46L183.79 282.07L182.79 283.75L181.83 285.49L180.9 287.29L180.02 289.15L179.17 291.06L178.36 293.04L177.6 295.06L176.88 297.13L176.21 299.26L175.58 301.42L175 303.64L174.47 305.89L173.99 308.18L173.56 310.51L173.18 312.87L172.86 315.27L172.59 317.69L172.39 320.14L172.23 322.62L172.14 325.13L172.11 327.65L172.14 330.17L172.23 332.68L172.39 335.15L172.59 337.61L172.86 340.03L173.18 342.43L173.56 344.79L173.99 347.12L174.47 349.41L175 351.66L175.58 353.87L176.21 356.04L176.88 358.16L177.6 360.24L178.36 362.26L179.17 364.23L180.02 366.15L180.9 368.01L181.83 369.81L182.79 371.55L183.79 373.23L184.82 374.84L185.88 376.39L186.98 377.86L188.11 379.26L189.27 380.59L190.45 381.84L191.66 383.01L192.9 384.1L194.16 385.11L195.45 386.03L196.75 386.87L198.08 387.61L199.42 388.26L200.78 388.82L202.16 389.28L203.55 389.65L204.96 389.91L206.38 390.07L207.81 390.12L209.24 390.07L210.66 389.91L212.06 389.65L213.46 389.28L214.83 388.82L216.19 388.26L217.54 387.61L218.86 386.87L220.17 386.03L221.45 385.11L222.72 384.1L223.95 383.01L225.16 381.84L226.35 380.59L227.51 379.26L228.64 377.86L229.73 376.39L230.8 374.84L231.83 373.23L232.83 371.55L233.79 369.81L234.72 368.01L235.6 366.15L236.45 364.23L237.25 362.26L238.02 360.24L238.74 358.16L239.41 356.04L240.04 353.87L240.62 351.66L241.15 349.41L241.63 347.12L242.06 344.79L242.43 342.43L242.76 340.03L243.02 337.61L243.23 335.15L243.38 332.68L243.48 330.17L243.51 327.65L243.48 325.13L243.39 322.62L243.24 320.14L243.04 317.69L242.78 315.27L242.47 312.87L242.11 310.51L241.69 308.18L241.22 305.89L240.71 303.64L240.14 301.42L239.53 299.26L238.87 297.13L238.17 295.06L237.42 293.04L236.63 291.06L235.8 289.15L234.93 287.29L234.02 285.49L233.07 283.75L232.08 282.07L231.06 280.46L230 278.91L228.91 277.44L227.79 276.04L226.63 274.71L225.45 273.46L224.23 272.29L222.99 271.2L221.72 270.19L220.43 269.27L219.11 268.43L217.77 267.69L216.4 267.04L215.02 266.48L213.61 266.02L212.19 265.65L210.74 265.39L209.28 265.23L207.81 265.18L206.38 265.23L204.96 265.39Z" id="cabs2mXnd"></path><path d="M330.91 246.32L333.14 246.65L335.34 247.1L337.51 247.68L339.65 248.38L341.76 249.2L343.83 250.14L345.86 251.19L347.85 252.35L349.8 253.62L351.71 255.01L353.57 256.49L355.39 258.08L357.17 259.77L358.89 261.56L360.56 263.44L362.18 265.42L363.75 267.49L365.26 269.64L366.71 271.88L368.11 274.21L369.44 276.62L370.71 279.1L371.92 281.66L373.06 284.3L374.13 287.01L375.14 289.78L376.07 292.63L376.93 295.54L377.72 298.51L378.43 301.54L379.07 304.63L379.62 307.77L380.09 310.97L380.49 314.21L380.79 317.51L381.02 320.84L381.15 324.23L381.2 327.65L381.15 331.07L381.02 334.45L380.79 337.79L380.49 341.09L380.09 344.33L379.62 347.53L379.07 350.67L378.43 353.76L377.72 356.79L376.93 359.76L376.07 362.67L375.14 365.51L374.13 368.29L373.06 371L371.92 373.64L370.71 376.2L369.44 378.68L368.11 381.09L366.71 383.42L365.26 385.66L363.75 387.81L362.18 389.88L360.56 391.86L358.89 393.74L357.17 395.53L355.39 397.22L353.57 398.81L351.71 400.29L349.8 401.67L347.85 402.95L345.86 404.11L343.83 405.16L341.76 406.1L339.65 406.92L337.51 407.62L335.34 408.2L333.14 408.65L330.91 408.98L328.66 409.18L326.37 409.24L324.09 409.18L321.83 408.98L319.61 408.65L317.4 408.2L315.23 407.62L313.1 406.92L310.99 406.1L308.92 405.16L306.89 404.11L304.9 402.95L302.95 401.67L301.04 400.29L299.17 398.81L297.35 397.22L295.58 395.53L293.86 393.74L292.19 391.86L290.57 389.88L289 387.81L287.49 385.66L286.04 383.42L284.64 381.09L283.31 378.68L282.04 376.2L280.83 373.64L279.69 371L278.62 368.29L277.61 365.51L276.68 362.67L275.82 359.76L275.03 356.79L274.32 353.76L273.68 350.67L273.13 347.53L272.65 344.33L272.26 341.09L271.96 337.79L271.73 334.45L271.6 331.07L271.55 327.65L271.6 324.23L271.73 320.84L271.96 317.51L272.26 314.21L272.65 310.97L273.13 307.77L273.68 304.63L274.32 301.54L275.03 298.51L275.82 295.54L276.68 292.63L277.61 289.78L278.62 287.01L279.69 284.3L280.83 281.66L282.04 279.1L283.31 276.62L284.64 274.21L286.04 271.88L287.49 269.64L289 267.49L290.57 265.42L292.19 263.44L293.86 261.56L295.58 259.77L297.35 258.08L299.17 256.49L301.04 255.01L302.95 253.62L304.9 252.35L306.89 251.19L308.92 250.14L310.99 249.2L313.1 248.38L315.23 247.68L317.4 247.1L319.61 246.65L321.83 246.32L324.09 246.12L326.37 246.06L328.66 246.12L330.91 246.32ZM323.53 265.39L322.12 265.65L320.73 266.02L319.35 266.48L317.99 267.04L316.64 267.69L315.32 268.43L314.01 269.27L312.73 270.19L311.47 271.2L310.23 272.29L309.02 273.46L307.83 274.71L306.68 276.04L305.55 277.44L304.45 278.91L303.38 280.46L302.35 282.07L301.35 283.75L300.39 285.49L299.47 287.29L298.58 289.15L297.74 291.06L296.93 293.04L296.17 295.06L295.45 297.13L294.77 299.26L294.15 301.42L293.57 303.64L293.03 305.89L292.55 308.18L292.12 310.51L291.75 312.87L291.43 315.27L291.16 317.69L290.95 320.14L290.8 322.62L290.71 325.13L290.68 327.65L290.71 330.17L290.8 332.68L290.95 335.15L291.16 337.61L291.43 340.03L291.75 342.43L292.12 344.79L292.55 347.12L293.03 349.41L293.57 351.66L294.15 353.87L294.77 356.04L295.45 358.16L296.17 360.24L296.93 362.26L297.74 364.23L298.58 366.15L299.47 368.01L300.39 369.81L301.35 371.55L302.35 373.23L303.38 374.84L304.45 376.39L305.55 377.86L306.68 379.26L307.83 380.59L309.02 381.84L310.23 383.01L311.47 384.1L312.73 385.11L314.01 386.03L315.32 386.87L316.64 387.61L317.99 388.26L319.35 388.82L320.73 389.28L322.12 389.65L323.53 389.91L324.95 390.07L326.37 390.12L327.8 390.07L329.22 389.91L330.63 389.65L332.02 389.28L333.4 388.82L334.76 388.26L336.1 387.61L337.43 386.87L338.74 386.03L340.02 385.11L341.28 384.1L342.52 383.01L343.73 381.84L344.92 380.59L346.07 379.26L347.2 377.86L348.3 376.39L349.36 374.84L350.4 373.23L351.39 371.55L352.36 369.81L353.28 368.01L354.17 366.15L355.01 364.23L355.82 362.26L356.58 360.24L357.3 358.16L357.98 356.04L358.6 353.87L359.18 351.66L359.71 349.41L360.2 347.12L360.62 344.79L361 342.43L361.32 340.03L361.59 337.61L361.8 335.15L361.95 332.68L362.04 330.17L362.07 327.65L362.04 325.13L361.95 322.62L361.81 320.14L361.61 317.69L361.35 315.27L361.04 312.87L360.67 310.51L360.26 308.18L359.79 305.89L359.27 303.64L358.71 301.42L358.1 299.26L357.44 297.13L356.73 295.06L355.99 293.04L355.2 291.06L354.37 289.15L353.49 287.29L352.58 285.49L351.63 283.75L350.65 282.07L349.62 280.46L348.57 278.91L347.48 277.44L346.35 276.04L345.2 274.71L344.01 273.46L342.8 272.29L341.56 271.2L340.29 270.19L338.99 269.27L337.68 268.43L336.33 267.69L334.97 267.04L333.58 266.48L332.18 266.02L330.75 265.65L329.31 265.39L327.85 265.23L326.37 265.18L324.95 265.23L323.53 265.39Z" id="ef8pKtq56"></path><path d="M124.94 399.68C124.94 391.61 124.94 351.24 124.94 278.57C111.55 288.89 104.12 294.63 102.63 295.78C98.17 298.96 92.43 298.33 89.24 293.86C86.06 289.4 86.69 283.67 91.16 280.48C94.92 277.55 125 254.09 128.76 251.16C131.95 248.61 135.78 248.61 138.96 249.88C142.15 251.79 144.06 254.98 144.06 258.17C144.06 272.25 144.06 384.96 144.06 399.04C144.06 404.78 139.6 409.24 134.5 409.24C129.4 409.24 124.94 404.78 124.94 399.68Z" id="ey4Op62YO"></path><path d="M420.72 406.06C416.25 402.87 414.98 397.13 418.17 392.67C427.47 378.84 501.93 268.18 511.24 254.34C514.42 249.88 520.16 248.61 524.62 251.79C529.08 254.98 530.36 260.72 527.17 265.18C517.8 279.01 442.84 389.67 433.47 403.51C431.55 406.69 428.37 407.97 425.82 407.97C423.9 407.97 421.99 407.33 420.72 406.06Z" id="gR5lscMsp"></path><path d="M439.78 243.63L441.33 243.79L442.85 244.01L444.36 244.29L445.85 244.62L447.33 245.02L448.78 245.47L450.2 245.97L451.6 246.53L452.98 247.15L454.33 247.81L455.65 248.52L456.94 249.28L458.2 250.09L459.43 250.95L460.62 251.85L461.78 252.8L462.9 253.79L463.98 254.82L465.03 255.89L466.03 257L466.99 258.15L467.91 259.34L468.78 260.56L469.61 261.82L470.39 263.11L471.11 264.43L471.79 265.79L472.42 267.17L472.99 268.58L473.51 270.02L473.98 271.49L474.38 272.98L474.73 274.5L475.02 276.04L475.24 277.59L475.41 279.17L475.5 280.77L475.54 282.39L475.5 284.01L475.41 285.61L475.24 287.19L475.02 288.75L474.73 290.28L474.38 291.8L473.98 293.29L473.51 294.76L472.99 296.2L472.42 297.61L471.79 298.99L471.11 300.35L470.39 301.67L469.61 302.96L468.78 304.22L467.91 305.44L466.99 306.63L466.03 307.78L465.03 308.89L463.98 309.96L462.9 310.99L461.78 311.98L460.62 312.93L459.43 313.83L458.2 314.69L456.94 315.5L455.65 316.26L454.33 316.97L452.98 317.64L451.6 318.25L450.2 318.81L448.78 319.31L447.33 319.76L445.85 320.16L444.36 320.49L442.85 320.77L441.33 320.99L439.78 321.15L438.22 321.24L436.65 321.27L435.08 321.24L433.52 321.15L431.98 320.99L430.45 320.77L428.94 320.49L427.45 320.16L425.98 319.76L424.53 319.31L423.11 318.81L421.7 318.25L420.33 317.64L418.98 316.97L417.66 316.26L416.37 315.5L415.11 314.69L413.88 313.83L412.69 312.93L411.53 311.98L410.41 310.99L409.32 309.96L408.28 308.89L407.28 307.78L406.32 306.63L405.4 305.44L404.53 304.22L403.7 302.96L402.92 301.67L402.19 300.35L401.51 298.99L400.89 297.61L400.31 296.2L399.79 294.76L399.33 293.29L398.92 291.8L398.58 290.28L398.29 288.75L398.06 287.19L397.9 285.61L397.8 284.01L397.77 282.39L397.8 280.82L397.9 279.26L398.05 277.72L398.27 276.19L398.55 274.68L398.89 273.19L399.28 271.72L399.73 270.27L400.24 268.84L400.8 267.44L401.41 266.06L402.07 264.71L402.79 263.39L403.55 262.1L404.36 260.84L405.21 259.62L406.12 258.42L407.06 257.26L408.05 256.14L409.08 255.06L410.16 254.02L411.27 253.01L412.42 252.05L413.6 251.13L414.83 250.26L416.08 249.44L417.37 248.66L418.7 247.93L420.05 247.25L421.43 246.62L422.85 246.05L424.29 245.53L425.75 245.07L427.24 244.66L428.76 244.31L430.3 244.03L431.86 243.8L433.44 243.64L435.04 243.54L436.65 243.51L438.22 243.54L439.78 243.63ZM433.99 263.45L432.69 263.67L431.43 263.98L430.19 264.37L428.99 264.83L427.83 265.37L426.71 265.98L425.64 266.66L424.61 267.41L423.63 268.22L422.71 269.08L421.84 270.01L421.03 270.99L420.29 272.01L419.61 273.09L419 274.21L418.46 275.37L417.99 276.57L417.6 277.8L417.3 279.07L417.07 280.36L416.94 281.68L416.89 283.03L416.94 284.37L417.07 285.69L417.3 286.99L417.6 288.25L417.99 289.49L418.46 290.69L419 291.85L419.61 292.97L420.29 294.04L421.03 295.07L421.84 296.05L422.71 296.97L423.63 297.84L424.61 298.65L425.64 299.39L426.71 300.07L427.83 300.69L428.99 301.23L430.19 301.69L431.43 302.08L432.69 302.38L433.99 302.61L435.31 302.74L436.65 302.79L438 302.74L439.32 302.61L440.61 302.38L441.88 302.08L443.11 301.69L444.31 301.23L445.47 300.69L446.59 300.07L447.67 299.39L448.7 298.65L449.67 297.84L450.6 296.97L451.47 296.05L452.27 295.07L453.02 294.04L453.7 292.97L454.31 291.85L454.85 290.69L455.32 289.49L455.7 288.25L456.01 286.99L456.23 285.69L456.37 284.37L456.41 283.03L456.37 281.68L456.23 280.36L456.01 279.07L455.7 277.8L455.32 276.57L454.85 275.37L454.31 274.21L453.7 273.09L453.02 272.01L452.27 270.99L451.47 270.01L450.6 269.08L449.67 268.22L448.7 267.41L447.67 266.66L446.59 265.98L445.47 265.37L444.31 264.83L443.11 264.37L441.88 263.98L440.61 263.67L439.32 263.45L438 263.31L436.65 263.27L435.31 263.31L433.99 263.45Z" id="aKeGAoK4"></path><path d="M520.74 323.31L522.28 323.47L523.81 323.69L525.32 323.97L526.81 324.31L528.28 324.7L529.73 325.15L531.16 325.66L532.56 326.22L533.94 326.83L535.29 327.49L536.61 328.2L537.9 328.97L539.16 329.78L540.38 330.63L541.58 331.53L542.74 332.48L543.86 333.47L544.94 334.5L545.98 335.57L546.99 336.69L547.95 337.83L548.87 339.02L549.74 340.24L550.56 341.5L551.34 342.79L552.07 344.11L552.75 345.47L553.38 346.85L553.95 348.27L554.47 349.71L554.93 351.17L555.34 352.66L555.69 354.18L555.97 355.72L556.2 357.28L556.36 358.86L556.46 360.45L556.49 362.07L556.46 363.69L556.37 365.29L556.21 366.87L555.99 368.43L555.71 369.97L555.38 371.48L554.98 372.97L554.53 374.44L554.03 375.88L553.47 377.29L552.85 378.67L552.19 380.03L551.48 381.35L550.72 382.64L549.91 383.9L549.05 385.12L548.15 386.31L547.2 387.46L546.21 388.57L545.18 389.64L544.11 390.67L543 391.66L541.85 392.61L540.66 393.51L539.44 394.37L538.18 395.18L536.89 395.94L535.57 396.65L534.21 397.32L532.83 397.93L531.42 398.49L529.98 398.99L528.51 399.44L527.02 399.84L525.5 400.17L523.96 400.45L522.41 400.67L520.83 400.83L519.23 400.92L517.61 400.96L516.04 400.92L514.48 400.83L512.94 400.67L511.41 400.45L509.9 400.17L508.41 399.84L506.94 399.44L505.49 398.99L504.06 398.49L502.66 397.93L501.28 397.32L499.93 396.65L498.61 395.94L497.32 395.18L496.06 394.37L494.83 393.51L493.64 392.61L492.48 391.66L491.36 390.67L490.28 389.64L489.24 388.57L488.23 387.46L487.27 386.31L486.35 385.12L485.48 383.9L484.66 382.64L483.88 381.35L483.15 380.03L482.47 378.67L481.84 377.29L481.27 375.88L480.75 374.44L480.29 372.97L479.88 371.48L479.53 369.97L479.25 368.43L479.02 366.87L478.86 365.29L478.76 363.69L478.73 362.07L478.76 360.5L478.85 358.94L479.01 357.4L479.23 355.87L479.51 354.36L479.84 352.87L480.24 351.4L480.69 349.95L481.19 348.52L481.75 347.12L482.36 345.75L483.03 344.4L483.74 343.08L484.5 341.78L485.31 340.52L486.17 339.3L487.07 338.1L488.02 336.95L489.01 335.82L490.04 334.74L491.11 333.7L492.22 332.69L493.37 331.73L494.56 330.82L495.78 329.94L497.04 329.12L498.33 328.34L499.65 327.61L501.01 326.93L502.39 326.3L503.8 325.73L505.24 325.21L506.71 324.75L508.2 324.34L509.72 324L511.25 323.71L512.81 323.48L514.39 323.32L515.99 323.22L517.61 323.19L519.18 323.22L520.74 323.31ZM514.94 343.13L513.65 343.35L512.38 343.66L511.15 344.05L509.95 344.51L508.79 345.05L507.67 345.66L506.59 346.34L505.57 347.09L504.59 347.9L503.67 348.76L502.8 349.69L501.99 350.67L501.24 351.69L500.56 352.77L499.95 353.89L499.41 355.05L498.95 356.25L498.56 357.48L498.25 358.75L498.03 360.04L497.89 361.37L497.85 362.71L497.89 364.05L498.03 365.37L498.25 366.67L498.56 367.94L498.95 369.17L499.41 370.37L499.95 371.53L500.56 372.65L501.24 373.72L501.99 374.75L502.8 375.73L503.67 376.65L504.59 377.52L505.57 378.33L506.59 379.07L507.67 379.76L508.79 380.37L509.95 380.91L511.15 381.37L512.38 381.76L513.65 382.07L514.94 382.29L516.27 382.42L517.61 382.47L518.95 382.42L520.27 382.29L521.57 382.07L522.84 381.76L524.07 381.37L525.27 380.91L526.43 380.37L527.55 379.76L528.62 379.07L529.65 378.33L530.63 377.52L531.55 376.65L532.42 375.73L533.23 374.75L533.98 373.72L534.66 372.65L535.27 371.53L535.81 370.37L536.27 369.17L536.66 367.94L536.97 366.67L537.19 365.37L537.32 364.05L537.37 362.71L537.32 361.29L537.19 359.91L536.97 358.57L536.66 357.26L536.27 356L535.81 354.78L535.27 353.61L534.66 352.49L533.98 351.41L533.23 350.4L532.42 349.43L531.55 348.53L530.63 347.68L529.65 346.9L528.62 346.18L527.55 345.52L526.43 344.94L525.27 344.42L524.07 343.98L522.84 343.62L521.57 343.33L520.27 343.12L518.95 342.99L517.61 342.95L516.27 342.99L514.94 343.13Z" id="a1x0MBGOTw"></path></defs><g><g><g><use xlink:href="#c1tFpGW9OF" opacity="1" fill="#ee6344" fill-opacity="1"></use><g><use xlink:href="#c1tFpGW9OF" opacity="1" fill-opacity="0" stroke="#000000" stroke-width="1" stroke-opacity="0"></use></g></g><g><use xlink:href="#cabs2mXnd" opacity="1" fill="#ee6344" fill-opacity="1"></use><g><use xlink:href="#cabs2mXnd" opacity="1" fill-opacity="0" stroke="#000000" stroke-width="1" stroke-opacity="0"></use></g></g><g><use xlink:href="#ef8pKtq56" opacity="1" fill="#ee6344" fill-opacity="1"></use><g><use xlink:href="#ef8pKtq56" opacity="1" fill-opacity="0" stroke="#000000" stroke-width="1" stroke-opacity="0"></use></g></g><g><use xlink:href="#ey4Op62YO" opacity="1" fill="#ee6344" fill-opacity="1"></use><g><use xlink:href="#ey4Op62YO" opacity="1" fill-opacity="0" stroke="#000000" stroke-width="1" stroke-opacity="0"></use></g></g><g><use xlink:href="#gR5lscMsp" opacity="1" fill="#ee6344" fill-opacity="1"></use><g><use xlink:href="#gR5lscMsp" opacity="1" fill-opacity="0" stroke="#000000" stroke-width="1" stroke-opacity="0"></use></g></g><g><use xlink:href="#aKeGAoK4" opacity="1" fill="#ee6344" fill-opacity="1"></use><g><use xlink:href="#aKeGAoK4" opacity="1" fill-opacity="0" stroke="#000000" stroke-width="1" stroke-opacity="0"></use></g></g><g><use xlink:href="#a1x0MBGOTw" opacity="1" fill="#ee6344" fill-opacity="1"></use><g><use xlink:href="#a1x0MBGOTw" opacity="1" fill-opacity="0" stroke="#000000" stroke-width="1" stroke-opacity="0"></use></g></g></g></g></svg>