<?xml version="1.0" encoding="UTF-8" standalone="no"?>
<!DOCTYPE svg PUBLIC "-//W3C//DTD SVG 1.1//EN" "http://www.w3.org/Graphics/SVG/1.1/DTD/svg11.dtd">
<svg version="1.1" xmlns="http://www.w3.org/2000/svg" xmlns:xlink="http://www.w3.org/1999/xlink" preserveAspectRatio="xMidYMid meet" viewBox="0 0 640 640" width="640" height="640"><defs><path d="M255.58 88.42L257.92 88.62L260.29 88.91L262.69 89.28L265.1 89.74L267.54 90.29L269.99 90.92L272.45 91.64L274.92 92.44L277.4 93.32L279.89 94.29L282.38 95.35L284.87 96.49L287.36 97.71L289.84 99.02L292.32 100.41L294.78 101.89L297.23 103.45L299.67 105.09L302.09 106.81L304.49 108.62L305.28 109.24L306.07 109.86L306.84 110.49L307.61 111.12L308.37 111.76L309.12 112.4L309.86 113.05L310.6 113.7L311.33 114.36L312.05 115.03L312.76 115.69L313.47 116.37L314.16 117.05L314.85 117.73L315.53 118.42L316.2 119.11L316.87 119.8L317.52 120.5L318.17 121.21L318.81 121.91L319.44 122.62L320.06 123.34L320.67 124.06L321.28 124.78L321.87 125.51L322.46 126.23L323.03 126.96L323.6 127.7L324.16 128.44L324.71 129.18L325.25 129.92L325.79 130.67L326.31 131.41L326.82 132.16L327.33 132.92L327.82 133.67L328.31 134.43L328.78 135.19L329.25 135.95L329.7 136.71L330.16 135.95L330.62 135.19L331.09 134.44L331.58 133.69L332.07 132.94L332.57 132.19L333.08 131.44L333.6 130.7L334.13 129.95L334.67 129.21L335.22 128.48L335.77 127.74L336.34 127.01L336.92 126.28L337.5 125.55L338.09 124.83L338.7 124.11L339.31 123.39L339.93 122.68L340.56 121.97L341.2 121.26L341.85 120.56L342.5 119.86L343.17 119.16L343.84 118.47L344.52 117.78L345.21 117.1L345.91 116.42L346.62 115.74L347.34 115.07L348.06 114.4L348.8 113.74L349.54 113.08L350.29 112.43L351.05 111.78L351.81 111.13L352.59 110.49L353.37 109.86L354.16 109.23L354.96 108.61L356.4 107.51L357.86 106.44L359.32 105.4L360.79 104.39L362.28 103.4L363.77 102.45L365.27 101.52L366.78 100.62L368.29 99.75L369.82 98.92L371.34 98.11L372.88 97.33L374.41 96.58L375.96 95.86L377.5 95.18L379.05 94.52L380.6 93.9L382.15 93.3L383.7 92.74L385.24 92.21L386.79 91.72L388.34 91.25L389.89 90.82L391.43 90.42L392.96 90.06L394.5 89.72L396.03 89.43L397.55 89.16L399.06 88.93L400.57 88.74L402.08 88.57L403.57 88.45L405.05 88.36L406.53 88.3L407.99 88.28L409.44 88.29L410.88 88.35L412.31 88.43L413.72 88.56L415.12 88.72L415.95 88.83L416.78 88.96L417.59 89.09L418.39 89.24L419.19 89.41L419.98 89.58L420.76 89.77L421.54 89.97L422.3 90.19L423.06 90.42L423.8 90.65L424.54 90.9L425.27 91.17L425.99 91.44L426.7 91.73L427.4 92.03L428.09 92.34L428.78 92.67L429.45 93L430.12 93.35L430.77 93.71L431.42 94.08L432.05 94.47L432.68 94.86L433.29 95.27L433.9 95.69L434.49 96.12L435.08 96.56L435.65 97.01L436.21 97.47L436.77 97.95L437.31 98.44L437.84 98.94L438.36 99.45L438.87 99.97L439.37 100.5L439.86 101.04L440.34 101.59L440.8 102.16L441.26 102.73L442.09 103.86L442.88 105.01L443.62 106.19L444.3 107.39L444.93 108.62L445.52 109.87L446.05 111.14L446.54 112.43L446.97 113.74L447.36 115.07L447.7 116.41L447.99 117.78L448.23 119.16L448.42 120.56L448.56 121.98L448.66 123.41L448.7 124.85L448.7 126.31L448.65 127.78L448.56 129.26L448.42 130.75L448.23 132.25L447.99 133.76L447.71 135.28L447.38 136.8L447.01 138.34L446.59 139.88L446.12 141.42L445.61 142.97L445.06 144.52L444.46 146.08L443.81 147.64L443.12 149.2L442.38 150.76L441.6 152.32L440.78 153.88L439.91 155.43L439 156.99L438.05 158.54L437.05 160.09L542.11 160.09L542.51 160.1L542.9 160.12L543.28 160.16L543.66 160.21L544.04 160.28L544.41 160.37L544.78 160.46L545.13 160.58L545.49 160.7L545.83 160.84L546.17 160.99L546.51 161.15L546.83 161.33L547.15 161.52L547.46 161.72L547.76 161.93L548.05 162.16L548.34 162.39L548.61 162.63L548.88 162.89L549.13 163.15L549.37 163.43L549.61 163.71L549.83 164L550.04 164.3L550.24 164.61L550.43 164.93L550.61 165.26L550.77 165.59L550.93 165.93L551.06 166.28L551.19 166.63L551.3 166.99L551.4 167.35L551.48 167.72L551.55 168.1L551.61 168.48L551.65 168.87L551.67 169.26L551.68 169.65L551.68 270.3L551.67 270.69L551.65 271.08L551.61 271.47L551.55 271.85L551.48 272.23L551.4 272.6L551.3 272.96L551.19 273.32L551.06 273.68L550.93 274.02L550.77 274.36L550.61 274.69L550.43 275.02L550.24 275.34L550.04 275.65L549.83 275.95L549.61 276.24L549.37 276.52L549.13 276.8L548.88 277.06L548.61 277.32L548.34 277.56L548.05 277.8L547.76 278.02L547.46 278.23L547.15 278.43L546.83 278.62L546.51 278.8L546.17 278.96L545.83 279.11L545.49 279.25L545.13 279.38L544.78 279.49L544.41 279.59L544.04 279.67L543.66 279.74L543.28 279.79L542.9 279.83L542.51 279.86L542.11 279.86L520.06 279.86L520.06 531.22L520.05 531.61L520.03 532L519.99 532.39L519.93 532.77L519.86 533.15L519.78 533.52L519.68 533.88L519.57 534.24L519.45 534.59L519.31 534.94L519.15 535.28L518.99 535.61L518.81 535.94L518.62 536.26L518.42 536.57L518.21 536.87L517.99 537.16L517.75 537.44L517.51 537.72L517.26 537.98L516.99 538.24L516.72 538.48L516.43 538.72L516.14 538.94L515.84 539.15L515.53 539.35L515.21 539.54L514.89 539.72L514.55 539.88L514.21 540.03L513.87 540.17L513.51 540.3L513.16 540.41L512.79 540.51L512.42 540.59L512.04 540.66L511.66 540.71L511.28 540.75L510.89 540.78L510.49 540.79L148.93 540.79L148.54 540.78L148.15 540.75L147.76 540.71L147.38 540.66L147 540.59L146.63 540.51L146.27 540.41L145.91 540.3L145.56 540.17L145.21 540.03L144.87 539.88L144.54 539.72L144.21 539.54L143.89 539.35L143.58 539.15L143.28 538.94L142.99 538.72L142.71 538.48L142.43 538.24L142.17 537.98L141.91 537.72L141.67 537.44L141.43 537.16L141.21 536.87L141 536.57L140.8 536.26L140.61 535.94L140.43 535.61L140.27 535.28L140.12 534.94L139.98 534.59L139.85 534.24L139.74 533.88L139.65 533.52L139.56 533.15L139.49 532.77L139.44 532.39L139.4 532L139.38 531.61L139.37 531.22L139.37 279.87L117.28 279.87L116.89 279.86L116.5 279.84L116.11 279.8L115.73 279.74L115.35 279.68L114.98 279.59L114.62 279.49L114.26 279.38L113.9 279.26L113.56 279.12L113.22 278.97L112.88 278.8L112.56 278.63L112.24 278.44L111.93 278.24L111.63 278.02L111.34 277.8L111.05 277.57L110.78 277.32L110.52 277.07L110.26 276.8L110.02 276.53L109.78 276.25L109.56 275.95L109.35 275.65L109.15 275.34L108.96 275.03L108.78 274.7L108.62 274.37L108.47 274.03L108.33 273.68L108.2 273.33L108.09 272.97L107.99 272.6L107.91 272.23L107.84 271.86L107.79 271.47L107.75 271.09L107.72 270.7L107.72 270.3L107.72 169.66L107.72 169.27L107.75 168.88L107.79 168.49L107.84 168.11L107.91 167.73L107.99 167.36L108.09 166.99L108.2 166.64L108.33 166.28L108.47 165.94L108.62 165.6L108.78 165.26L108.96 164.94L109.15 164.62L109.35 164.31L109.56 164.01L109.78 163.72L110.02 163.43L110.26 163.16L110.52 162.89L110.78 162.64L111.05 162.4L111.34 162.16L111.63 161.94L111.93 161.73L112.24 161.53L112.56 161.34L112.88 161.16L113.22 161L113.56 160.85L113.9 160.71L114.26 160.58L114.62 160.47L114.98 160.37L115.35 160.29L115.73 160.22L116.11 160.16L116.5 160.13L116.89 160.1L117.28 160.09L222.34 160.09L221.34 158.55L220.39 157L219.48 155.44L218.61 153.89L217.79 152.33L217.01 150.77L216.28 149.21L215.59 147.65L214.94 146.09L214.34 144.53L213.78 142.98L213.27 141.43L212.81 139.89L212.39 138.35L212.01 136.82L211.69 135.29L211.4 133.77L211.17 132.26L210.98 130.76L210.84 129.27L210.74 127.79L210.69 126.32L210.69 124.86L210.74 123.42L210.83 121.99L210.98 120.57L211.17 119.17L211.4 117.79L211.69 116.42L212.03 115.08L212.41 113.75L212.85 112.44L213.33 111.14L213.86 109.88L214.44 108.63L215.08 107.4L215.76 106.2L216.49 105.02L217.28 103.87L218.11 102.74L219.39 101.18L220.76 99.72L222.19 98.34L223.7 97.05L225.28 95.85L226.93 94.74L228.64 93.71L230.41 92.78L232.24 91.93L234.13 91.18L236.07 90.51L238.07 89.93L240.11 89.43L242.2 89.03L244.34 88.71L246.51 88.48L248.73 88.33L250.98 88.27L253.26 88.3L255.58 88.42ZM158.5 521.65L320.14 521.65L320.14 279.86L158.5 279.86L158.5 521.65ZM339.28 521.65L500.93 521.65L500.93 279.86L339.28 279.86L339.28 521.65ZM339.28 260.73L532.55 260.73L532.55 179.22L339.28 179.22L339.28 260.73ZM126.85 260.73L320.14 260.73L320.14 179.22L126.85 179.22L126.85 260.73ZM406.42 107.45L405.32 107.51L404.22 107.59L403.1 107.71L401.98 107.85L400.84 108.02L399.7 108.21L398.54 108.43L397.38 108.68L396.22 108.96L395.04 109.26L393.86 109.59L392.68 109.94L391.49 110.32L390.3 110.72L389.1 111.15L387.9 111.6L386.7 112.08L385.5 112.58L384.3 113.11L383.1 113.66L381.9 114.23L380.7 114.83L379.5 115.45L378.31 116.09L377.12 116.76L375.93 117.45L374.75 118.16L373.58 118.89L372.41 119.65L371.24 120.42L370.09 121.22L368.94 122.04L367.8 122.88L366.67 123.74L365.66 124.53L364.67 125.34L363.69 126.15L362.72 126.98L361.78 127.81L360.84 128.66L359.93 129.51L359.03 130.37L358.14 131.25L357.28 132.13L356.43 133.01L355.6 133.91L354.79 134.81L353.99 135.72L353.21 136.63L352.45 137.55L351.72 138.47L350.99 139.4L350.29 140.33L349.61 141.27L348.95 142.21L348.31 143.15L347.68 144.09L347.08 145.04L346.5 145.99L345.94 146.94L345.4 147.89L344.88 148.84L344.39 149.79L343.91 150.74L343.46 151.68L343.03 152.63L342.63 153.57L342.24 154.52L341.88 155.46L341.54 156.39L341.23 157.32L340.94 158.25L340.67 159.18L340.43 160.09L412.57 160.09L413.71 158.86L414.81 157.61L415.88 156.36L416.91 155.1L417.9 153.83L418.86 152.56L419.77 151.29L420.65 150.01L421.49 148.73L422.29 147.45L423.05 146.18L423.77 144.9L424.45 143.63L425.09 142.36L425.69 141.09L426.24 139.84L426.76 138.59L427.23 137.34L427.66 136.11L428.05 134.89L428.39 133.68L428.69 132.49L428.94 131.3L429.15 130.14L429.32 128.99L429.44 127.85L429.51 126.74L429.54 125.64L429.52 124.57L429.45 123.51L429.34 122.49L429.18 121.48L428.97 120.5L428.71 119.55L428.4 118.62L428.04 117.72L427.64 116.85L427.18 116.02L426.67 115.21L426.11 114.44L425.89 114.16L425.67 113.89L425.44 113.63L425.21 113.37L424.96 113.12L424.71 112.87L424.46 112.63L424.2 112.39L423.93 112.16L423.66 111.93L423.38 111.71L423.1 111.49L422.81 111.28L422.51 111.08L422.21 110.88L421.9 110.69L421.58 110.5L421.26 110.32L420.93 110.14L420.6 109.97L420.26 109.8L419.92 109.64L419.57 109.49L419.21 109.34L418.85 109.19L418.48 109.05L418.1 108.92L417.72 108.79L417.33 108.67L416.94 108.55L416.54 108.44L416.14 108.34L415.73 108.24L415.31 108.14L414.89 108.06L414.46 107.97L414.03 107.9L413.59 107.82L413.14 107.76L412.69 107.7L411.68 107.58L410.66 107.5L409.62 107.44L408.56 107.42L407.5 107.42L406.42 107.45ZM247.5 107.64L246.1 107.8L244.75 108.03L243.44 108.31L242.17 108.66L240.96 109.06L239.79 109.52L238.68 110.04L237.62 110.62L236.62 111.26L235.68 111.97L234.8 112.73L233.99 113.56L233.24 114.44L232.69 115.22L232.18 116.02L231.73 116.86L231.32 117.72L230.97 118.62L230.66 119.55L230.41 120.5L230.2 121.48L230.04 122.48L229.93 123.51L229.86 124.56L229.84 125.64L229.87 126.73L229.95 127.85L230.07 128.98L230.23 130.13L230.44 131.3L230.7 132.48L231 133.67L231.34 134.88L231.73 136.11L232.16 137.34L232.63 138.58L233.14 139.83L233.7 141.09L234.3 142.35L234.93 143.62L235.61 144.89L236.33 146.17L237.09 147.45L237.89 148.73L238.73 150.01L239.6 151.28L240.52 152.56L241.47 153.83L242.46 155.09L243.49 156.35L244.55 157.61L245.65 158.85L246.79 160.09L319.01 160.09L318.77 159.16L318.51 158.24L318.21 157.31L317.9 156.37L317.56 155.43L317.2 154.49L316.82 153.55L316.41 152.6L315.98 151.65L315.53 150.7L315.05 149.75L314.56 148.8L314.04 147.85L313.5 146.9L312.94 145.95L312.36 145.01L311.75 144.06L311.13 143.12L310.49 142.18L309.83 141.24L309.14 140.3L308.44 139.37L307.72 138.45L306.98 137.53L306.22 136.61L305.45 135.7L304.65 134.79L303.84 133.89L303.01 133L302.16 132.12L301.3 131.24L300.42 130.37L299.52 129.51L298.6 128.65L297.67 127.81L296.73 126.98L295.76 126.15L294.79 125.34L293.79 124.54L292.78 123.75L291.11 122.48L289.41 121.27L287.7 120.1L285.98 118.98L284.24 117.91L282.49 116.89L280.74 115.92L278.98 115L277.21 114.14L275.45 113.32L273.69 112.55L271.93 111.84L270.17 111.18L268.43 110.57L266.69 110.02L264.97 109.52L263.26 109.07L261.57 108.68L259.9 108.34L258.25 108.06L256.63 107.83L255.03 107.66L253.46 107.54L251.91 107.48L250.41 107.47L248.93 107.53L247.5 107.64Z" id="b2WZPjb7Vr"></path></defs><g><g><g><use xlink:href="#b2WZPjb7Vr" opacity="1" fill="#ee6344" fill-opacity="1"></use><g><use xlink:href="#b2WZPjb7Vr" opacity="1" fill-opacity="0" stroke="#000000" stroke-width="1" stroke-opacity="0"></use></g></g></g></g></svg>